<svg height="512pt" viewBox="0 0 512 512" width="512pt" xmlns="http://www.w3.org/2000/svg"><path d="m211 211h30v30h-30zm0 0"/><path d="m271 211h30v30h-30zm0 0"/><path d="m429.421875 375.378906-62.839844-14.378906h33.6875l-14.023437-28.042969c-4.183594-8.367187-9.378906-16.128906-15.429688-23.132812 13.234375-24.21875 20.183594-51.320313 20.183594-79.082031v-62.363282l12.898438-39.652344c5.105468-15.375 1.753906-31.800781-8.972657-43.953124-10.738281-12.164063-26.652343-17.527344-42.5625-14.34375l-21.589843 4.316406c-8.230469-9.113282-19.816407-14.457032-32.367188-14.714844 1.675781-4.703125 2.59375-9.761719 2.59375-15.03125 0-24.8125-20.1875-45-45-45s-45 20.1875-45 45c0 5.277344.921875 10.339844 2.597656 15.050781-12.382812.414063-23.761718 5.765625-31.867187 14.796875l-22.097657-4.417968c-15.910156-3.1875-31.820312 2.179687-42.558593 14.34375-10.726563 12.152343-14.082031 28.578124-8.976563 43.953124l12.902344 39.652344v62.363282c0 27.761718 6.949219 54.863281 20.183594 79.078124-6.050782 7.007813-11.25 14.769532-15.433594 23.136719l-14.019531 28.042969h33.464843l-63.617187 14.378906c-47.269531 10.816406-81.578125 54.28125-81.578125 103.351563v33.269531h512v-33.269531c0-48.9375-34.730469-92.402344-82.578125-103.351563zm-64.578125 106.621094h-217.695312c-31.25-20.070312-51.503907-48.417969-56.125-78l64.835937-14.652344c7.820313 20.648438 24.5625 37.269532 46.421875 44.558594l53.71875 17.90625 53.71875-17.90625c21.847656-7.285156 38.582031-23.890625 46.40625-44.523438l63.878906 14.617188c-4.519531 29.863281-24.429687 58.214844-55.160156 78zm-213.84375-251.257812v-49.742188h210v49.742188c0 20.445312-4.625 40.445312-13.441406 58.691406-18.527344-12.179688-39.886719-18.433594-61.558594-18.433594-11.515625 0-22.03125 4.355469-30 11.496094-7.96875-7.140625-18.484375-11.496094-30-11.496094-21.726562 0-43.085938 6.289062-61.558594 18.429688-8.816406-18.242188-13.441406-38.242188-13.441406-58.6875zm30 130.257812h45c11.515625 0 22.03125-4.355469 30-11.496094 7.96875 7.144532 18.484375 11.496094 30 11.496094h45v1.753906c0 19.398438-12.363281 36.554688-30.769531 42.691406l-44.230469 14.742188-44.230469-14.742188c-18.402343-6.136718-30.769531-23.292968-30.769531-42.691406zm-18.488281-30c15.371093-18.835938 38.414062-30 63.488281-30 8.269531 0 15 6.730469 15 15s-6.730469 15-15 15zm108.488281-15c0-8.269531 6.730469-15 15-15 25.074219 0 48.117188 11.164062 63.488281 30h-63.488281c-8.269531 0-15-6.730469-15-15zm87.25-216.152344c7.648438-1.527344 12.46875 2.835938 14.1875 4.78125 1.71875 1.945313 5.449219 7.273438 2.984375 14.671875l-10.316406 31.699219h-40.0625l12.699219-25.941406c3.484374-7 5.042968-14.570313 4.710937-22.050782zm-102.25-69.847656c8.269531 0 15 6.730469 15 15s-6.730469 15-15 15-15-6.730469-15-15 6.730469-15 15-15zm-53.65625 67.183594c1.316406-2.160156 5.207031-7.183594 12.804688-7.183594h82.3125c7.546874 0 11.4375 4.976562 12.757812 7.113281 1.324219 2.140625 4.035156 7.84375.660156 14.59375l-19.238281 39.292969h-70.144531l-19.691406-39.144531c-3.472657-6.757813-.78125-12.511719.539062-14.671875zm-62.78125 7.445312c1.71875-1.949218 6.539062-6.3125 14.1875-4.78125l16.394531 3.277344c-.320312 7.609375 1.320313 15.296875 4.945313 22.382812l12.824218 25.492188h-41.019531l-10.316406-31.699219c-2.464844-7.398437 1.265625-12.726562 2.984375-14.671875zm-109.5625 374.101563c0-25.511719 12.867188-48.890625 32.78125-62.777344 5.316406 23.886719 18.152344 46.648437 37.070312 66.046875h-69.851562zm452 3.269531h-70.054688c6.800782-7.03125 12.839844-14.535156 17.96875-22.398438 8.949219-13.726562 15.160157-28.570312 18.417969-43.777343 20.445313 13.90625 33.667969 37.363281 33.667969 62.90625zm0 0"/></svg>