<svg height="512pt" viewBox="0 0 512 512" width="512pt" xmlns="http://www.w3.org/2000/svg"><path d="m270.839844 271.140625h29.984375v29.984375h-29.984375zm0 0"/><path d="m210.875 271.140625h29.984375v29.984375h-29.984375zm0 0"/><path d="m0 286.132812c0 57.730469 30.21875 112.875 80.902344 144.285157-12.949219 19.664062-19.9375 42.742187-19.9375 66.589843v14.992188h389.769531v-14.992188c0-23.847656-6.992187-46.925781-19.941406-66.589843 17-10.535157 32.207031-24.074219 44.6875-40.015625 23.355469-29.835938 36.21875-66.863282 36.21875-104.269532v-14.992187h-45.058594c-27.621094 0-56.257813-9.296875-80.640625-26.175781-2.9375-2.03125-6.0625-4-9.335938-5.890625-.5625-22.386719-7.339843-44.203125-19.570312-62.96875l84.859375-84.855469h-81.164063v-69.230469l-69.46875 34.730469-35.472656-56.75-35.46875 56.753906-69.46875-34.734375v69.230469h-72.984375l67.632813 101.445312c-6.519532 14.558594-10.121094 30.320313-10.523438 46.378907-3.277344 1.894531-6.402344 3.859375-9.335937 5.890625-24.382813 16.882812-53.023438 26.179687-80.640625 26.179687h-45.058594zm107.9375 157.878907c6.761719 2.671875 13.695312 4.914062 20.765625 6.679687l82.378906 20.59375c.351563 3.730469 1.164063 7.324219 2.371094 10.730469h-121.273437c2.277343-13.6875 7.65625-26.675781 15.757812-38.003906zm132.921875 23.015625c0-6.09375 3.65625-11.339844 8.890625-13.683594l6.097656 7.550781 6.101563-7.550781c5.230469 2.34375 8.890625 7.589844 8.890625 13.683594 0 8.265625-6.726563 14.992187-14.992188 14.992187s-14.988281-6.726562-14.988281-14.992187zm-19.390625-113.011719c-28.175781-12.152344-48.042969-38.609375-51.847656-69.046875l-3.953125-31.601562c-1.394531-11.160157-.640625-22.4375 9.046875-32.753907 5.679687-6.050781 13.074218-9.402343 20.800781-9.4375h.367187c18.472657 0 36.21875 6.777344 49.96875 19.082031l9.996094 8.949219 10-8.949219c13.75-12.304687 31.492188-19.082031 49.964844-19.082031h.355469c7.742187.039063 15.136719 3.386719 20.816406 9.4375 9.328125 9.933594 10.5 21.117188 9.042969 32.753907l-3.949219 31.601562c-3.804687 30.4375-23.675781 56.894531-51.851563 69.046875l-11.140624 4.804687 4.105468 20.542969-27.339844 33.832031-27.34375-33.832031 4.105469-20.542969zm-33.558594-172.28125c17.234375-19.398437 41.980469-30.523437 67.9375-30.523437 25.960938 0 50.707032 11.125 67.941406 30.523437-2.46875-.335937-4.972656-.527344-7.5-.539063l-.476562-.003906c-21.582031 0-42.453125 6.609375-59.964844 18.816406-17.507812-12.207031-38.382812-18.816406-59.964844-18.816406l-.488281.003906c-2.523437.011719-5.019531.207032-7.484375.539063zm231.605469 300.285156h-121.273437c1.210937-3.410156 2.019531-7.003906 2.375-10.730469l82.378906-20.597656c7.066406-1.765625 14.003906-4.007812 20.765625-6.679687 8.097656 11.328125 13.480469 24.316406 15.753906 38.007812zm47.125-180.90625h14.238281c-6.390625 56.988281-48.644531 106.363281-105.15625 120.492188l-82.394531 20.597656c-3.257813-4.902344-7.449219-9.136719-12.320313-12.4375l34.34375-42.492187-2.238281-11.1875c32-18.046876 54.109375-50.554688 58.714844-87.398438l1.976563-15.824219c28.277343 18.257813 61.019531 28.25 92.835937 28.25zm-332.691406-179.882812h46.945312v-50.699219l50.460938 25.230469 24.492187-39.191407 24.496094 39.191407 50.460938-25.230469v50.699219h38.765624l-31.90625 31.90625c-22.191406-20.40625-51.375-31.90625-81.816406-31.90625-35.664062 0-69.785156 15.792969-92.878906 43.53125zm-88.894531 179.894531c31.816406 0 64.5625-10.003906 92.839843-28.257812l1.976563 15.820312c4.605468 36.84375 26.710937 69.351562 58.714844 87.398438l-2.238282 11.1875 34.34375 42.492187c-4.875 3.300781-9.0625 7.535156-12.320312 12.4375l-82.398438-20.597656c-56.511718-14.128907-98.765625-63.492188-105.152344-120.480469zm0 0"/></svg>