<?xml version="1.0" encoding="UTF-8" standalone="no"?>
<!-- Created with Inkscape (http://www.inkscape.org/) -->

<svg
   xmlns:dc="http://purl.org/dc/elements/1.1/"
   xmlns:cc="http://creativecommons.org/ns#"
   xmlns:rdf="http://www.w3.org/1999/02/22-rdf-syntax-ns#"
   xmlns:svg="http://www.w3.org/2000/svg"
   xmlns="http://www.w3.org/2000/svg"
   xmlns:sodipodi="http://sodipodi.sourceforge.net/DTD/sodipodi-0.dtd"
   xmlns:inkscape="http://www.inkscape.org/namespaces/inkscape"
   width="680"
   height="880"
   viewBox="0 0 179.91666 232.83334"
   version="1.1"
   id="svg52"
   inkscape:version="0.92.3 (2405546, 2018-03-11)"
   sodipodi:docname="WALET.svg">
  <defs
     id="defs46" />
  <sodipodi:namedview
     id="base"
     pagecolor="#ffffff"
     bordercolor="#666666"
     borderopacity="1.0"
     inkscape:pageopacity="0.0"
     inkscape:pageshadow="2"
     inkscape:zoom="0.35"
     inkscape:cx="410.21198"
     inkscape:cy="277.98299"
     inkscape:document-units="mm"
     inkscape:current-layer="layer1"
     showgrid="false"
     units="px"
     inkscape:window-width="716"
     inkscape:window-height="403"
     inkscape:window-x="815"
     inkscape:window-y="20"
     inkscape:window-maximized="0" />
  <metadata
     id="metadata49">
    <rdf:RDF>
      <cc:Work
         rdf:about="">
        <dc:format>image/svg+xml</dc:format>
        <dc:type
           rdf:resource="http://purl.org/dc/dcmitype/StillImage" />
        <dc:title></dc:title>
      </cc:Work>
    </rdf:RDF>
  </metadata>
  <g
     inkscape:label="Layer 1"
     inkscape:groupmode="layer"
     id="layer1"
     transform="translate(0,-64.16665)">
    <path
       style="stroke-width:0.23464164"
       inkscape:connector-curvature="0"
       d="m 100.43241,219.29338 h 7.1284 v 6.95122 h -7.1284 z m 0,0"
       id="path2" />
    <path
       style="stroke-width:0.23464164"
       inkscape:connector-curvature="0"
       d="m 114.6892,219.29338 h 7.1284 v 6.95122 h -7.1284 z m 0,0"
       id="path4" />
    <path
       style="stroke-width:0.23464164"
       inkscape:connector-curvature="0"
       d="m 152.33232,257.38117 -14.93157,-3.33169 h 8.00459 l -3.33215,-6.49777 c -0.99407,-1.93874 -2.22855,-3.73718 -3.6663,-5.36004 3.14467,-5.61166 4.79589,-11.89128 4.79589,-18.32388 v -14.45003 l 3.06484,-9.18773 c 1.21313,-3.5625 0.41675,-7.36848 -2.13202,-10.18426 -2.55156,-2.81851 -6.33295,-4.06121 -10.11341,-3.32355 l -5.13003,1.00014 c -1.95567,-2.11161 -4.70865,-3.3498 -7.69087,-3.40954 0.39819,-1.08975 0.61631,-2.26186 0.61631,-3.48285 0,-5.74923 -4.79682,-10.42681 -10.69259,-10.42681 -5.89578,0 -10.6926,4.67758 -10.6926,10.42681 0,1.2228 0.21905,2.39582 0.61724,3.48738 -2.942322,0.0959 -5.646099,1.33594 -7.572064,3.42854 l -5.250696,-1.02367 c -3.780462,-0.73857 -7.560927,0.50504 -10.112484,3.32355 -2.54877,2.81578 -3.346074,6.62176 -2.132948,10.18426 l 3.065766,9.18773 v 14.45003 c 0,6.4326 1.651228,12.71222 4.795888,18.32298 -1.437746,1.62376 -2.673147,3.4222 -3.667226,5.36094 l -3.331223,6.49777 h 7.951687 l -15.116283,3.33169 C 58.448204,259.88742 50.29603,269.95854 50.29603,281.32849 v 7.70879 h 121.65794 v -7.70879 c 0,-11.33918 -8.25241,-21.4103 -19.62165,-23.94732 z m -15.34461,24.70489 H 85.26044 c -7.425413,-4.65044 -12.238009,-11.2188 -13.336042,-18.07317 l 15.405872,-3.39506 c 1.858211,4.7844 5.836375,8.63563 11.03045,10.32456 l 12.76429,4.149 12.76428,-4.149 c 5.19129,-1.68803 9.16759,-5.53564 11.02673,-10.31641 l 15.17847,3.38691 c -1.0739,6.91954 -5.80481,13.4888 -13.10678,18.07317 z M 86.175618,223.86779 v -11.52562 h 49.898762 v 11.52562 c 0,4.73733 -1.09895,9.37147 -3.19385,13.59923 -4.40234,-2.82212 -9.47761,-4.2712 -14.62713,-4.2712 -2.73627,0 -5.23492,1.00919 -7.12839,2.66373 -1.89348,-1.65454 -4.39214,-2.66373 -7.1284,-2.66373 -5.162519,0 -10.237788,1.45722 -14.627136,4.27029 -2.094894,-4.22685 -3.193856,-8.86099 -3.193856,-13.59832 z m 7.128398,30.18169 h 10.692594 c 2.73626,0 5.23492,-1.0092 7.1284,-2.66373 1.89347,1.65544 4.39212,2.66373 7.12839,2.66373 h 10.69259 v 0.40639 c 0,4.49476 -2.93768,8.46999 -7.31125,9.89191 l -10.50973,3.41587 -10.50975,-3.41587 c -4.372638,-1.42192 -7.311244,-5.39715 -7.311244,-9.89191 z m -4.393062,-6.95122 c 3.652375,-4.36443 9.127689,-6.95122 15.085656,-6.95122 1.96495,0 3.5642,1.5595 3.5642,3.47561 0,1.9161 -1.59925,3.47561 -3.5642,3.47561 z m 25.778246,-3.47561 c 0,-1.91611 1.59925,-3.47561 3.5642,-3.47561 5.95797,0 11.43328,2.58679 15.08565,6.95122 H 118.2534 c -1.96495,0 -3.5642,-1.55951 -3.5642,-3.47561 z m 20.73175,-50.08408 c 1.81737,-0.35389 2.96274,0.65711 3.37114,1.10785 0.4084,0.45074 1.29481,1.68531 0.70912,3.39958 l -2.45131,7.34494 h -9.51938 l 3.0175,-6.01081 c 0.82793,-1.62195 1.19828,-3.37605 1.11939,-5.10933 z m -24.29594,-16.18421 c 1.96494,0 3.56419,1.5595 3.56419,3.47561 0,1.91612 -1.59925,3.47561 -3.56419,3.47561 -1.96495,0 -3.5642,-1.55949 -3.5642,-3.47561 0,-1.91611 1.59925,-3.47561 3.5642,-3.47561 z m -12.749439,15.56693 c 0.312796,-0.50052 1.23726,-1.66449 3.042559,-1.66449 h 19.55854 c 1.79323,0 2.7177,1.15311 3.03143,1.6482 0.31464,0.496 0.9588,1.81745 0.15686,3.38147 l -4.57127,9.10447 h -16.66727 l -4.678937,-9.07007 c -0.82515,-1.56583 -0.185634,-2.89905 0.128088,-3.39958 z m -14.917653,1.72513 c 0.408398,-0.45164 1.553768,-1.46265 3.371138,-1.10785 l 3.895556,0.75939 c -0.07611,1.76315 0.313724,3.5444 1.17507,5.18625 l 3.047204,5.90673 H 85.200104 L 82.74879,198.046 c -0.585677,-1.71427 0.30073,-2.94884 0.709128,-3.39958 z m -26.033493,86.68207 c 0,-5.91125 3.057414,-11.32832 7.789257,-14.54598 1.263248,5.53473 4.313236,10.80879 8.808394,15.30355 H 57.424425 Z m 107.401155,0.75757 h -16.64592 c 1.61596,-1.6292 3.05092,-3.3679 4.26962,-5.18988 2.12645,-3.18055 3.60225,-6.61995 4.37635,-10.14353 4.85807,3.22218 7.99995,8.65734 7.99995,14.57584 z m 0,0"
       id="path6" />
    <rect
       id="rect43"
       width="52.417923"
       height="52.039566"
       x="-57.045425"
       y="83.336555"
       style="stroke-width:0.13818765;fill:#ffffff"
       transform="matrix(0.53923274,-0.84215679,0.55299272,0.83318608,0,0)" />
    <path
       style="fill:#ffffff;stroke-width:0.26458332"
       id="path81"
       d="m 96.057793,233.66317 c 0.144449,0.34854 0.358066,0.66345 0.532783,0.99705 0.160896,0.35411 0.343472,0.69967 0.532197,1.03981 0.213225,0.37457 0.300008,0.79525 0.409977,1.20656 0.162525,0.4101 0.287274,0.83357 0.435001,1.24852 0.17481,0.35372 0.34218,0.70962 0.50038,1.07123 0.177282,0.40188 0.345273,0.80832 0.526981,1.20812 0.152022,0.37419 0.350452,0.72305 0.538247,1.07927 0.144505,0.30795 0.259419,0.62948 0.404189,0.93704 0,0 -1.719829,0.97193 -1.719829,0.97193 v 0 c -0.138644,-0.30733 -0.254894,-0.62503 -0.394168,-0.93248 -0.182841,-0.36188 -0.385379,-0.71231 -0.537541,-1.08945 -0.187349,-0.39802 -0.343387,-0.81154 -0.523473,-1.21322 -0.165679,-0.36439 -0.341741,-0.72207 -0.521229,-1.07955 -0.140399,-0.4228 -0.247124,-0.85722 -0.43117,-1.26551 -0.108228,-0.39477 -0.191458,-0.80121 -0.389882,-1.16397 -0.187746,-0.34246 -0.38103,-0.68456 -0.539862,-1.04104 -0.17305,-0.33603 -0.373208,-0.65727 -0.546377,-0.99282 0,0 1.723776,-0.98149 1.723776,-0.98149 z"
       inkscape:connector-curvature="0" />
    <path
       style="fill:#ffffff;stroke-width:0.26458332"
       id="path83"
       d="m 90.981309,232.88311 c 0.169344,0.60552 0.430625,1.17967 0.663369,1.76238 0.200308,0.4183 0.357505,0.8575 0.600842,1.25379 0.178313,0.24134 0.379817,0.46615 0.594754,0.67541 0.191453,0.21593 0.333576,0.4766 0.427234,0.74911 0.09255,0.44986 0.27814,0.87276 0.452183,1.29549 0.129127,0.37179 0.397246,0.65121 0.642006,0.94735 0.214281,0.28725 0.361278,0.61072 0.491914,0.94183 0.130701,0.4348 0.269293,0.86442 0.434067,1.28771 0.0885,0.20288 0.182078,0.40309 0.2809,0.6011 0,0 -1.707128,0.97059 -1.707128,0.97059 v 0 c -0.09913,-0.20416 -0.190717,-0.41128 -0.282647,-0.6188 -0.166965,-0.42122 -0.312878,-0.84776 -0.444516,-1.28117 -0.124359,-0.3121 -0.259876,-0.61705 -0.463415,-0.88783 -0.255257,-0.3134 -0.525756,-0.61485 -0.657431,-1.00683 -0.170643,-0.42655 -0.368009,-0.85021 -0.480251,-1.29552 -0.0759,-0.24612 -0.202562,-0.47916 -0.377282,-0.66919 -0.223798,-0.22325 -0.434745,-0.46343 -0.616082,-0.72235 -0.235017,-0.41362 -0.400344,-0.86077 -0.587751,-1.297 -0.224068,-0.58218 -0.48445,-1.14973 -0.697815,-1.7361 0,0 1.727049,-0.96997 1.727049,-0.96997 z"
       inkscape:connector-curvature="0" />
    <path
       style="fill:#ffffff;stroke-width:0.26458332"
       id="path85"
       d="m 89.883392,236.69127 c 0.04692,0.003 0.09478,-0.005 0.140612,0.006 0.04055,0.0106 0.07707,0.0304 0.109223,0.0569 0.02696,0.0289 0.04769,0.0627 0.06637,0.0973 0.01352,0.0384 0.02956,0.0757 0.04424,0.11367 0.01913,0.0376 0.03996,0.0741 0.05842,0.11202 0.02037,0.0288 0.03108,0.0613 0.04115,0.0946 0.01114,0.0343 0.03668,0.0592 0.05983,0.0856 0.02926,0.0279 0.05589,0.056 0.07457,0.0922 0.0096,0.0186 0.0208,0.0361 0.03033,0.0546 0,0 -0.21495,0.12282 -0.21495,0.12282 v 0 c -0.0097,-0.0186 -0.02074,-0.0363 -0.02992,-0.0551 -0.01714,-0.0348 -0.04461,-0.0595 -0.07147,-0.0868 -0.02537,-0.0289 -0.05201,-0.0575 -0.06534,-0.0943 -0.01029,-0.032 -0.01863,-0.064 -0.03854,-0.092 -0.01842,-0.0387 -0.03996,-0.0757 -0.05978,-0.11372 -0.01368,-0.0371 -0.03025,-0.0731 -0.04282,-0.11065 -0.01714,-0.0317 -0.03516,-0.0633 -0.06105,-0.0888 -0.03036,-0.023 -0.0645,-0.0399 -0.102095,-0.0472 -0.04618,-0.005 -0.09291,-0.001 -0.13929,-0.002 0,0 0.200507,-0.14568 0.200507,-0.14568 z"
       inkscape:connector-curvature="0" />
    <path
       style="fill:#ffffff;stroke:#ffffff;stroke-width:0.26458332px;stroke-linecap:butt;stroke-linejoin:miter;stroke-opacity:1"
       d="m 89.369473,237.46611 3.857479,6.46416 0.885331,-1.60361 -2.973375,-6.03027 z"
       id="path89"
       inkscape:connector-curvature="0" />
    <path
       style="fill:#ffffff;stroke:#ffffff;stroke-width:0.26458332px;stroke-linecap:butt;stroke-linejoin:miter;stroke-opacity:1"
       d="m 94.078874,229.18034 -2.939968,7.11605 2.722544,7.07148 8.50278,0.84638 -9.554888,2.27179 5.144939,10.15624 12.494849,-0.73499 c 0,0 6.28083,-3.60814 6.81537,-5.54584 0.53454,-1.93771 -3.40768,-15.03391 -3.40768,-15.03391 0,0 -1.93771,-4.27631 -9.2208,-4.27631 -7.283094,0 -10.557146,-1.87089 -10.557146,-1.87089 z"
       id="path91"
       inkscape:connector-curvature="0" />
    <path
       style="fill:#ffffff;stroke:#ffffff;stroke-width:0.26458332px;stroke-linecap:butt;stroke-linejoin:miter;stroke-opacity:1"
       d="m 110.36905,230.75965 c 21.26116,4.06325 22.51148,6.70737 22.51148,6.70737 v 0 l -3.78935,7.68267 -16.23662,-1.46998 z"
       id="path93"
       inkscape:connector-curvature="0" />
    <path
       style="fill:#ffffff;stroke:#ffffff;stroke-width:0.26458332px;stroke-linecap:butt;stroke-linejoin:miter;stroke-opacity:1"
       d="m 83.84311,242.19077 2.902424,11.24745 -15.969493,3.40179 z"
       id="path95"
       inkscape:connector-curvature="0" />
    <path
       style="fill:#ffffff;stroke:#ffffff;stroke-width:0.26458332px;stroke-linecap:butt;stroke-linejoin:miter;stroke-opacity:1"
       d="m 138.40689,242.19167 -1.00614,11.85781 17.18126,0.6551 z"
       id="path97"
       inkscape:connector-curvature="0" />
    <path
       style="fill:#ffffff;stroke:#ffffff;stroke-width:0.26458332px;stroke-linecap:butt;stroke-linejoin:miter;stroke-opacity:1"
       d="m 101.04965,184.31735 20.15164,-0.005 1.87721,-10.53307 -1.87721,10.53307 5.70422,-5.14691 -5.90588,-9.16593 c 0,0 -10.67783,-2.92931 -11.10305,-2.88207 -0.42523,0.0472 -16.819943,2.31511 -17.150672,3.30729 -0.330729,0.99219 -0.850447,11.67002 -0.519718,11.67002 0.330729,0 8.82346,2.22213 8.82346,2.22213 z"
       id="path99"
       inkscape:connector-curvature="0" />
    <path
       style="fill:none;stroke:#000000;stroke-width:0.26458332px;stroke-linecap:butt;stroke-linejoin:miter;stroke-opacity:1"
       d="m 83.843108,242.19077 2.902426,11.24745 -2.902426,-11.24745"
       id="path101"
       inkscape:connector-curvature="0" />
    <path
       style="fill:none;stroke:#000000;stroke-width:0.26458332px;stroke-linecap:butt;stroke-linejoin:miter;stroke-opacity:1"
       d="m 85.812407,249.45766 c 0.0047,-0.0235 0.01736,-0.0667 0.0118,-0.0945 -0.0019,-0.009 -0.0097,-0.0151 -0.0118,-0.0236 -0.0019,-0.008 0,-0.0157 0,-0.0236 0,-0.0157 0,-0.0315 0,-0.0473 0,-0.0118 0.0016,-0.0237 0,-0.0354 -0.0024,-0.0199 -0.009,-0.0392 -0.0118,-0.0591 -0.0011,-0.008 0,-0.0157 0,-0.0236 0,-0.0236 0,-0.0473 0,-0.0709 0,-0.0118 0.0029,-0.024 0,-0.0354 -0.0013,-0.005 -0.0093,-0.007 -0.01183,-0.0118 -0.0019,-0.004 0,-0.0391 0,-0.0473 0,-0.008 0,-0.0157 0,-0.0236 0,-0.004 -0.0039,-0.0118 0,-0.0118 0.0039,0 0,0.008 0,0.0118 0,0.0236 0,0.0473 0,0.0709 0,0.0118 -0.0019,0.0238 0,0.0354 0.0037,0.0219 0.014,0.0398 0.02363,0.0591 0.0039,0.008 0.009,0.0153 0.0118,0.0236 0.01027,0.0308 0.01471,0.0633 0.02363,0.0945 0.01958,0.0686 0.0027,0.007 0.02363,0.0591 0.02929,0.0111 0.0067,0.0318 0.01183,0.0472 0.0028,0.008 0.009,0.0153 0.0118,0.0236 0.0035,0.0106 -0.0035,0.0248 0,0.0354 0.0019,0.005 0.01005,0.007 0.0118,0.0118 0.0021,0.006 0,0.0373 0,0.0472"
       id="path103"
       inkscape:connector-curvature="0" />
    <path
       style="fill:#ffffff;stroke:#000000;stroke-width:0.26458332"
       id="path109"
       d="m 83.804725,241.79829 c 0.0087,0.0238 0.02204,0.0455 0.03452,0.0675 0.01053,0.0186 0.02088,0.0372 0.03138,0.0558 0.04346,0.0786 0.07643,0.16213 0.107797,0.24605 0.02064,0.0606 0.0415,0.12126 0.05869,0.18296 0.0011,0.005 0.0024,0.009 0.0034,0.0136 0,0 -0.01053,0.006 -0.01053,0.006 v 0 c -0.0011,-0.005 -0.0021,-0.009 -0.0033,-0.0136 -0.01654,-0.0619 -0.03705,-0.12276 -0.05766,-0.18341 -0.03131,-0.0839 -0.06428,-0.16737 -0.108164,-0.24564 -0.01058,-0.0185 -0.02098,-0.0371 -0.03161,-0.0556 -0.01262,-0.0219 -0.02614,-0.0436 -0.03533,-0.0673 0,0 0.01077,-0.006 0.01077,-0.006 z"
       inkscape:connector-curvature="0" />
    <path
       style="fill:#ffffff;stroke:#000000;stroke-width:0.26458332"
       id="path111"
       d="m 83.807503,241.88878 c 0.0028,0.0155 0.0061,0.031 0.0096,0.0464 0.0054,0.0222 0.01209,0.0441 0.01788,0.0662 0.0076,0.0287 0.01945,0.056 0.02837,0.0843 0.0038,0.0125 0.0051,0.0253 0.0094,0.0377 0.0034,0.01 0.0048,0.0196 0.0072,0.0295 0.0044,0.0151 0.0086,0.0303 0.01429,0.0449 0.0071,0.0183 0.01476,0.0364 0.02193,0.0547 0.0072,0.0207 0.01487,0.0414 0.0208,0.0626 0.0075,0.0281 0.01521,0.0561 0.02289,0.0842 0.0057,0.0203 0.0028,0.0102 0.0086,0.0301 0,0 -0.01048,0.006 -0.01048,0.006 v 0 c -0.0058,-0.0199 -0.0029,-0.01 -0.0086,-0.0302 -0.0077,-0.028 -0.01553,-0.056 -0.02307,-0.0841 -0.0059,-0.0211 -0.01352,-0.0417 -0.02074,-0.0624 -0.0072,-0.0183 -0.01487,-0.0363 -0.02201,-0.0546 -0.0057,-0.0146 -0.0099,-0.0299 -0.01442,-0.045 -0.0024,-0.01 -0.0039,-0.0198 -0.0072,-0.0293 -0.0044,-0.0123 -0.0057,-0.0252 -0.0093,-0.0378 -0.0087,-0.0284 -0.0204,-0.0557 -0.02828,-0.0844 -0.0059,-0.0221 -0.01259,-0.0439 -0.01807,-0.0661 -0.0035,-0.0154 -0.0068,-0.0309 -0.0098,-0.0464 0,0 0.01095,-0.006 0.01095,-0.006 z"
       inkscape:connector-curvature="0" />
    <path
       style="fill:#ffffff;stroke:#000000;stroke-width:0.26458332"
       id="path113"
       d="m 83.940331,242.5977 c -0.0092,-0.0163 -0.01429,-0.0345 -0.02045,-0.0521 -0.0058,-0.0175 -0.0095,-0.0357 -0.01344,-0.0537 -0.0016,-0.0139 -0.0075,-0.0264 -0.01241,-0.0394 -0.0043,-0.0101 -0.0092,-0.0199 -0.01347,-0.03 -0.0041,-0.0131 -0.0075,-0.0265 -0.01098,-0.0398 -0.0044,-0.0153 -0.0061,-0.0313 -0.01029,-0.0466 -0.0041,-0.0129 -0.0074,-0.026 -0.0099,-0.0393 -0.0034,-0.0175 -0.0089,-0.0346 -0.01318,-0.0519 -0.0055,-0.0198 -0.0113,-0.0395 -0.0158,-0.0595 -0.0058,-0.02 -0.01294,-0.0396 -0.01886,-0.0595 -0.0055,-0.0142 -0.0099,-0.0285 -0.01228,-0.0436 -7.94e-4,-0.0184 -0.0065,-0.036 -0.01087,-0.0538 -0.0042,-0.0185 -0.0095,-0.0368 -0.0141,-0.0552 -0.0035,-0.0173 -0.006,-0.0348 -0.0092,-0.0522 -0.0024,-0.0186 -0.0069,-0.0368 -0.01132,-0.055 -0.0043,-0.0152 -0.0065,-0.0309 -0.01207,-0.0457 -0.005,-0.0114 -0.0081,-0.0234 -0.0099,-0.0357 -7.94e-4,-0.0124 -0.004,-0.0245 -0.0082,-0.0362 -0.0043,-0.0134 -0.008,-0.0268 -0.01286,-0.04 -0.0053,-0.0151 -0.01312,-0.0291 -0.01921,-0.0439 -0.0049,-0.0126 -0.0093,-0.0255 -0.01532,-0.0376 -0.0055,-0.0105 -0.01103,-0.0209 -0.0177,-0.0307 -0.0069,-0.009 -0.01312,-0.0188 -0.01929,-0.0285 -0.0046,-0.01 -0.0083,-0.0202 -0.01307,-0.0301 0,0 0.01071,-0.006 0.01071,-0.006 v 0 c 0.0048,0.01 0.0084,0.0201 0.01299,0.03 0.0061,0.01 0.01244,0.0193 0.01929,0.0284 0.0067,0.01 0.01225,0.0204 0.01773,0.0309 0.0061,0.0121 0.01056,0.025 0.01537,0.0376 0.006,0.0148 0.01384,0.0288 0.01923,0.0439 0.0049,0.0132 0.0086,0.0267 0.01288,0.04 0.0042,0.0117 0.0075,0.0239 0.0083,0.0364 0.0016,0.0123 0.0047,0.0242 0.0097,0.0355 0.0056,0.0149 0.0077,0.0306 0.01209,0.0459 0.0044,0.0182 0.009,0.0364 0.01135,0.055 0.0031,0.0173 0.0058,0.0348 0.0092,0.0521 0.0046,0.0184 0.0099,0.0367 0.01405,0.0552 0.0044,0.0178 0.01024,0.0354 0.01106,0.0538 0.0021,0.015 0.0066,0.0293 0.01212,0.0435 0.0058,0.02 0.01299,0.0396 0.01881,0.0596 0.0045,0.0201 0.01035,0.0397 0.01582,0.0595 0.0043,0.0174 0.0098,0.0344 0.01331,0.0519 0.0024,0.0132 0.0058,0.0263 0.0098,0.0392 0.0042,0.0153 0.0058,0.0313 0.01027,0.0466 0.0035,0.0132 0.007,0.0265 0.01103,0.0395 0.0043,0.0101 0.0091,0.02 0.01344,0.0301 0.0049,0.013 0.01095,0.0255 0.01243,0.0395 0.0039,0.018 0.0075,0.0361 0.01328,0.0537 0.0061,0.0175 0.01125,0.0357 0.02058,0.0518 0,0 -0.01072,0.006 -0.01072,0.006 z"
       inkscape:connector-curvature="0" />
    <path
       style="fill:#ffffff;stroke:#000000;stroke-width:0.26458332"
       id="path115"
       d="m 84.314862,242.6077 c 0.0059,0.0314 0.01696,0.0614 0.02775,0.0914 0.0127,0.031 0.02614,0.0618 0.04165,0.0915 0.01117,0.0208 0.01971,0.0429 0.02692,0.0654 0.01056,0.031 0.01942,0.0625 0.02983,0.0936 0.0088,0.0263 0.01844,0.0524 0.02564,0.0792 0.0033,0.018 0.0108,0.0346 0.01471,0.0524 0.0048,0.0229 0.01008,0.0456 0.01569,0.0683 0.0059,0.0238 0.01434,0.0467 0.02275,0.0696 0.0085,0.0225 0.0182,0.0444 0.03022,0.0652 0.01638,0.0313 0.0369,0.0602 0.05474,0.0907 0.01791,0.0356 0.03874,0.0695 0.05664,0.10511 0.01106,0.025 0.02339,0.0493 0.03798,0.0724 0.0084,0.0145 0.01386,0.0304 0.01834,0.0465 7.94e-4,0.002 0.0013,0.004 0.0021,0.006 0,0 -0.01529,0.008 -0.01529,0.008 v 0 c -7.94e-4,-0.002 -0.0013,-0.004 -0.0021,-0.006 -0.0043,-0.0159 -0.0098,-0.0317 -0.01796,-0.0461 -0.0145,-0.0233 -0.02686,-0.0476 -0.03784,-0.0727 -0.01773,-0.0356 -0.03859,-0.0695 -0.05651,-0.10505 -0.01783,-0.0305 -0.03852,-0.0593 -0.05492,-0.0906 -0.01217,-0.0209 -0.02191,-0.0428 -0.03047,-0.0654 -0.0084,-0.023 -0.01685,-0.046 -0.02275,-0.0699 -0.0056,-0.0227 -0.01106,-0.0454 -0.01588,-0.0682 -0.0039,-0.0178 -0.0114,-0.0344 -0.01455,-0.0524 -0.0071,-0.0268 -0.01662,-0.0529 -0.02551,-0.0792 -0.01029,-0.0311 -0.0191,-0.0627 -0.02982,-0.0936 -0.0073,-0.0224 -0.01593,-0.0443 -0.02685,-0.0651 -0.01542,-0.0298 -0.02871,-0.0608 -0.04153,-0.0918 -0.0109,-0.03 -0.02183,-0.0601 -0.02842,-0.0914 0,0 0.01551,-0.008 0.01551,-0.008 z"
       inkscape:connector-curvature="0" />
    <path
       style="fill:#ffffff;stroke:#000000;stroke-width:0.26458332"
       id="path117"
       d="m 84.159925,242.61144 c -5.29e-4,0.0234 -0.0016,0.0473 0.0021,0.0706 0.0011,0.007 0.0076,0.0336 0.0091,0.0398 0.0109,0.0461 0.03216,0.0886 0.0482,0.13287 0.01543,0.0445 0.03023,0.0891 0.03979,0.13523 0.005,0.0207 0.0047,0.0421 0.0079,0.063 0.0019,0.0119 0.0034,0.0163 0.0066,0.0278 0.008,0.0276 0.01947,0.054 0.03148,0.08 0.01236,0.0252 0.02529,0.0501 0.03701,0.0756 0.01019,0.0238 0.01368,0.0497 0.01916,0.0748 0.01246,0.0534 0.02972,0.10542 0.04304,0.15857 0.01177,0.0423 0.02669,0.0836 0.04131,0.12499 0.0061,0.0182 0.01138,0.0366 0.01587,0.0552 0,0 -0.01516,0.008 -0.01516,0.008 v 0 c -0.0044,-0.0186 -0.0097,-0.037 -0.01564,-0.0552 -0.01445,-0.0415 -0.0293,-0.0829 -0.04103,-0.12533 -0.01315,-0.0532 -0.03043,-0.10519 -0.04338,-0.15844 -0.0057,-0.025 -0.0093,-0.0506 -0.01924,-0.0743 -0.01162,-0.0256 -0.02445,-0.0505 -0.03681,-0.0757 -0.01209,-0.0261 -0.02387,-0.0524 -0.0317,-0.0801 -0.0032,-0.0114 -0.005,-0.0163 -0.0068,-0.0281 -0.0032,-0.0209 -0.0028,-0.0423 -0.0076,-0.063 -0.0093,-0.0461 -0.0241,-0.0907 -0.03948,-0.13512 -0.01603,-0.0444 -0.03753,-0.0868 -0.04845,-0.13295 -0.0016,-0.006 -0.0082,-0.0333 -0.0093,-0.04 -0.0037,-0.0233 -0.0026,-0.0472 -0.0026,-0.0706 0,0 0.01556,-0.008 0.01556,-0.008 z"
       inkscape:connector-curvature="0" />
    <path
       style="fill:#ffffff;stroke:#000000;stroke-width:0.26458332"
       id="path119"
       d="m 84.469718,243.84625 c 0.01408,0.054 0.02833,0.1079 0.04429,0.16138 0.01246,0.0498 0.03111,0.0978 0.0458,0.1469 0.01244,0.036 0.02426,0.0721 0.03542,0.10849 0.01246,0.0441 0.02617,0.0879 0.03843,0.13203 0.01386,0.0466 0.03679,0.0892 0.05969,0.1318 0.02119,0.038 0.04174,0.0763 0.06324,0.11409 0.02233,0.0335 0.03515,0.0707 0.04536,0.10922 0.01201,0.0495 0.01672,0.10044 0.02643,0.15039 0.0024,0.012 0.0052,0.0239 0.0078,0.0359 0.01632,0.0631 0.03504,0.12556 0.05307,0.18819 0.0154,0.0565 0.02814,0.11367 0.04694,0.16917 0.0075,0.0181 0.01196,0.0372 0.0186,0.0556 0.0057,0.0158 0.01331,0.0308 0.02077,0.0457 0.0072,0.0136 0.01394,0.0273 0.02069,0.0411 0,0 -0.0149,0.008 -0.0149,0.008 v 0 c -0.0067,-0.0138 -0.01349,-0.0276 -0.02066,-0.0411 -0.0075,-0.0151 -0.01513,-0.0302 -0.02085,-0.046 -0.0066,-0.0184 -0.01093,-0.0376 -0.01836,-0.0557 -0.01873,-0.0556 -0.03103,-0.11291 -0.04675,-0.16936 -0.01807,-0.0627 -0.03656,-0.12525 -0.05292,-0.18839 -0.0026,-0.012 -0.0055,-0.0239 -0.0079,-0.0359 -0.0098,-0.0498 -0.01471,-0.1006 -0.02681,-0.15001 -0.01037,-0.0383 -0.02294,-0.0755 -0.04521,-0.1088 -0.02156,-0.0378 -0.04193,-0.0762 -0.0631,-0.11423 -0.02299,-0.0427 -0.04602,-0.0854 -0.05994,-0.13209 -0.01217,-0.0442 -0.02606,-0.0878 -0.03845,-0.13196 -0.01119,-0.0364 -0.02331,-0.0724 -0.03555,-0.10844 -0.0146,-0.0492 -0.03266,-0.0974 -0.0452,-0.14723 -0.01601,-0.0534 -0.0304,-0.10723 -0.04526,-0.16098 0,0 0.01527,-0.008 0.01527,-0.008 z"
       inkscape:connector-curvature="0" />
    <path
       style="fill:#ffffff;stroke:#000000;stroke-width:0.26458332"
       id="path121"
       d="m 84.727615,244.64605 c 5.29e-4,0.0629 0.0127,0.12543 0.02601,0.18672 0.0076,0.0366 0.01807,0.0725 0.02943,0.10819 0,0 -0.01484,0.008 -0.01484,0.008 v 0 c -0.01109,-0.0358 -0.0213,-0.0719 -0.02884,-0.10869 -0.01323,-0.0613 -0.02548,-0.1236 -0.02736,-0.18641 0,0 0.01558,-0.008 0.01558,-0.008 z"
       inkscape:connector-curvature="0" />
    <path
       style="fill:#ffffff;stroke:#000000;stroke-width:0.26458332"
       id="path123"
       d="m 84.723017,244.73371 c 0.0045,0.0235 0.0087,0.047 0.01556,0.07 0.01281,0.0485 0.01823,0.0985 0.02559,0.148 0.01696,0.0991 0.0338,0.19823 0.0517,0.29716 0.01238,0.0729 0.03335,0.14375 0.05143,0.21528 0.0094,0.0394 0.02223,0.0779 0.03291,0.11692 0.01249,0.0377 0.0231,0.0759 0.0314,0.11472 0.0058,0.031 0.0132,0.0617 0.02098,0.0923 0.0081,0.0309 0.01741,0.0614 0.02551,0.0922 0.0093,0.0341 0.01987,0.0678 0.03103,0.10138 0.0094,0.0288 0.01844,0.0578 0.02652,0.087 0.0059,0.0279 0.01333,0.0553 0.02154,0.0826 0.0092,0.0316 0.01371,0.0641 0.01638,0.0968 2.62e-4,0.0331 0.0051,0.0658 0.01122,0.0983 0.0044,0.0297 0.0083,0.0593 0.01519,0.0885 0.0053,0.0264 0.0099,0.0526 0.01826,0.0783 0.0084,0.0253 0.01752,0.0503 0.02487,0.0759 0.0081,0.0238 0.01609,0.0476 0.02492,0.0711 0.0072,0.0172 0.01685,0.0332 0.02244,0.0511 0,0 -0.01529,0.008 -0.01529,0.008 v 0 c -0.0054,-0.0179 -0.01503,-0.0339 -0.02222,-0.0511 -0.0088,-0.0236 -0.0168,-0.0474 -0.02495,-0.0713 -0.0073,-0.0256 -0.0164,-0.0506 -0.02482,-0.0759 -0.0083,-0.0257 -0.01312,-0.0519 -0.01831,-0.0784 -0.0069,-0.0292 -0.01087,-0.0588 -0.01521,-0.0886 -0.006,-0.0326 -0.01106,-0.0652 -0.01122,-0.0985 -0.0026,-0.0326 -0.0071,-0.065 -0.0163,-0.0964 -0.0082,-0.0273 -0.0158,-0.0547 -0.02156,-0.0827 -0.0081,-0.0292 -0.01699,-0.0582 -0.02643,-0.0869 -0.01103,-0.0336 -0.02177,-0.0673 -0.03104,-0.1015 -0.0082,-0.0308 -0.01746,-0.0614 -0.02559,-0.0922 -0.0078,-0.0306 -0.01527,-0.0613 -0.02096,-0.0924 -0.0082,-0.0388 -0.01857,-0.0771 -0.03128,-0.11467 -0.01077,-0.0391 -0.02344,-0.0776 -0.0327,-0.11707 -0.01762,-0.0718 -0.03839,-0.14282 -0.05063,-0.21583 -0.01773,-0.0989 -0.03453,-0.19802 -0.05219,-0.29695 -0.0076,-0.0493 -0.01336,-0.0991 -0.02625,-0.14738 -0.007,-0.0229 -0.01111,-0.0464 -0.01587,-0.0698 0,0 0.01537,-0.008 0.01537,-0.008 z"
       inkscape:connector-curvature="0" />
    <path
       style="fill:#ffffff;stroke:#000000;stroke-width:0.26458332"
       id="path125"
       d="m 85.142289,246.61832 c 0.0059,0.0667 0.02151,0.13187 0.03766,0.19667 0.019,0.0772 0.04455,0.15251 0.06668,0.22881 0.02252,0.0733 0.04174,0.14754 0.06656,0.22012 0.01995,0.051 0.03743,0.10277 0.05746,0.15369 0.01312,0.0375 0.02711,0.0746 0.04411,0.11049 0.0173,0.0307 0.03006,0.0632 0.04138,0.0965 0.01392,0.0401 0.02257,0.0816 0.03124,0.12306 0.0092,0.0367 0.01564,0.074 0.02598,0.11038 0.0072,0.0319 0.01955,0.0622 0.03063,0.0929 0.0066,0.0153 0.01318,0.0307 0.01982,0.046 0,0 -0.0149,0.008 -0.0149,0.008 v 0 c -0.0066,-0.0153 -0.01318,-0.0307 -0.01987,-0.0461 -0.01111,-0.0307 -0.02347,-0.0611 -0.03066,-0.093 -0.01032,-0.0364 -0.01669,-0.0738 -0.02593,-0.11055 -0.0087,-0.0414 -0.01712,-0.0829 -0.03121,-0.12284 -0.0114,-0.0332 -0.02403,-0.0657 -0.04135,-0.0963 -0.01688,-0.036 -0.0309,-0.0731 -0.04398,-0.1107 -0.01987,-0.051 -0.03727,-0.10293 -0.05703,-0.15401 -0.02471,-0.0727 -0.04404,-0.14691 -0.06639,-0.2203 -0.02215,-0.0763 -0.04789,-0.15161 -0.06683,-0.22879 -0.01614,-0.0648 -0.0316,-0.12987 -0.03867,-0.19636 0,0 0.01529,-0.008 0.01529,-0.008 z"
       inkscape:connector-curvature="0" />
    <path
       style="fill:#ffffff;stroke:#000000;stroke-width:0.26458332"
       id="path127"
       d="m 85.590495,248.06834 c 0.0061,0.0556 0.02032,0.11015 0.03358,0.16443 0.02344,0.0864 0.04737,0.17263 0.07177,0.25874 0.0204,0.0657 0.03367,0.13307 0.04657,0.2005 0.01669,0.0729 0.03545,0.1454 0.0541,0.21786 0.0146,0.0588 0.0329,0.11671 0.05291,0.17391 0.01339,0.0422 0.03354,0.082 0.05232,0.12209 0.01532,0.0305 0.0284,0.0619 0.03935,0.0943 0.0046,0.0158 0.0093,0.0316 0.0141,0.0473 0,0 -0.01492,0.008 -0.01492,0.008 v 0 c -0.0048,-0.0157 -0.0096,-0.0315 -0.01416,-0.0472 -0.01093,-0.0323 -0.02379,-0.0637 -0.03902,-0.0942 -0.01884,-0.0401 -0.03902,-0.08 -0.05234,-0.12229 -0.01984,-0.0573 -0.0379,-0.11538 -0.0525,-0.17428 -0.0186,-0.0725 -0.03745,-0.14497 -0.05427,-0.21788 -0.0131,-0.0674 -0.02603,-0.13481 -0.04622,-0.20053 -0.02418,-0.0862 -0.04813,-0.17244 -0.07189,-0.25874 -0.01349,-0.0542 -0.02781,-0.10858 -0.03478,-0.16409 0,0 0.01542,-0.008 0.01542,-0.008 z"
       inkscape:connector-curvature="0" />
    <path
       style="fill:#ffffff;stroke:#000000;stroke-width:0.26458332"
       id="path129"
       d="m 85.921902,249.35504 c 0.008,0.0524 0.01384,0.10499 0.02344,0.15716 0.01942,0.0881 0.04819,0.1737 0.07508,0.25969 0.027,0.0843 0.05632,0.16781 0.08165,0.25261 0.01349,0.037 0.02093,0.0754 0.02941,0.11369 0.0016,0.007 0.01225,0.0503 0.01408,0.0577 0.0093,0.0443 0.01728,0.0891 0.029,0.13282 0.0021,0.007 0.02011,0.066 0.02241,0.0735 0.01712,0.0557 0.03598,0.11109 0.05942,0.16446 0.01471,0.0317 0.02387,0.0656 0.03265,0.0993 0.01069,0.0441 0.02204,0.0881 0.03357,0.13206 0.0074,0.0314 0.01749,0.0621 0.02323,0.0939 0.0052,0.0421 0.01344,0.0836 0.02093,0.12533 0.0096,0.0488 0.01479,0.0983 0.02326,0.14731 0.008,0.0516 0.01537,0.10321 0.02365,0.15475 0.0078,0.0512 0.0136,0.1026 0.02199,0.15366 0.0076,0.042 0.01434,0.0842 0.02143,0.12626 0.0041,0.0286 0.009,0.0572 0.01466,0.0855 0,0 -0.01487,0.008 -0.01487,0.008 v 0 c -0.0057,-0.0284 -0.01058,-0.0569 -0.01474,-0.0856 -0.0072,-0.0421 -0.01365,-0.0843 -0.02133,-0.12633 -0.0085,-0.0511 -0.01397,-0.10258 -0.02183,-0.15375 -0.0083,-0.0515 -0.01582,-0.10309 -0.02381,-0.15464 -0.0085,-0.049 -0.0136,-0.0985 -0.02318,-0.14733 -0.0076,-0.0417 -0.01606,-0.0831 -0.0213,-0.12515 -0.0057,-0.0318 -0.01577,-0.0624 -0.02297,-0.0939 -0.01146,-0.0439 -0.0227,-0.0879 -0.03365,-0.13202 -0.0088,-0.0336 -0.0181,-0.0674 -0.03247,-0.0991 -0.02312,-0.0536 -0.04184,-0.10916 -0.05892,-0.16495 -0.0013,-0.005 -0.02132,-0.0692 -0.02252,-0.0736 -0.0118,-0.0437 -0.01992,-0.0884 -0.02925,-0.13267 -1.83e-4,-7.9e-4 -0.01405,-0.0571 -0.01418,-0.0577 -0.0085,-0.0382 -0.01564,-0.0768 -0.029,-0.11373 -0.02495,-0.0849 -0.05425,-0.16852 -0.08123,-0.25283 -0.02689,-0.086 -0.05593,-0.17157 -0.07563,-0.2596 -0.0098,-0.052 -0.01566,-0.10448 -0.02439,-0.15666 0,0 0.01537,-0.008 0.01537,-0.008 z"
       inkscape:connector-curvature="0" />
    <path
       style="fill:#ffffff;stroke:#000000;stroke-width:0.26458332"
       id="path131"
       d="m 86.400218,251.80277 c -0.0011,0.0585 -7.94e-4,0.1168 0.0044,0.17511 0.0013,0.0614 0.02291,0.11749 0.04696,0.17295 0.02471,0.0556 0.05547,0.10827 0.08271,0.16279 0.02125,0.0482 0.04806,0.0932 0.07709,0.13698 0.02996,0.0388 0.05412,0.0816 0.07005,0.12786 0.01662,0.0471 0.03155,0.0948 0.04741,0.14217 0.01617,0.0494 0.0384,0.0963 0.05642,0.14508 0.01921,0.0491 0.03166,0.1 0.04428,0.151 0.0093,0.0439 0.02135,0.0871 0.02994,0.13113 0.0033,0.0484 0.0131,0.0942 0.02779,0.1404 0.01707,0.0553 0.02633,0.11278 0.0359,0.16976 0.02074,0.0763 0.03874,0.15318 0.05747,0.22997 0.01879,0.0719 0.03852,0.14352 0.05634,0.21563 0.0066,0.0406 0.01701,0.0804 0.0245,0.12082 0.0078,0.0269 0.01426,0.054 0.01857,0.0817 0,0 -0.04373,0.0231 -0.04373,0.0231 v 0 c -0.0042,-0.0277 -0.01056,-0.0548 -0.01847,-0.0816 -0.0073,-0.0404 -0.01778,-0.0802 -0.02402,-0.12077 -0.01741,-0.0723 -0.03682,-0.14409 -0.05559,-0.21603 -0.01876,-0.0768 -0.03739,-0.15364 -0.05836,-0.2299 -0.0094,-0.0568 -0.01873,-0.11407 -0.03555,-0.16916 -0.01476,-0.0463 -0.02553,-0.0921 -0.02836,-0.14075 -0.0084,-0.044 -0.02048,-0.0872 -0.02967,-0.13098 -0.01262,-0.0508 -0.02466,-0.10165 -0.0439,-0.15058 -0.01812,-0.0488 -0.04035,-0.0957 -0.05663,-0.14515 -0.01577,-0.0474 -0.03083,-0.095 -0.04731,-0.14217 -0.01577,-0.046 -0.03984,-0.0883 -0.06957,-0.12671 -0.02902,-0.044 -0.05581,-0.0893 -0.07712,-0.13764 -0.02739,-0.0545 -0.05799,-0.10735 -0.08277,-0.16306 -0.02442,-0.0558 -0.04631,-0.11241 -0.04775,-0.17431 -0.0052,-0.0583 -0.0057,-0.11665 -0.0051,-0.17522 0,0 0.0441,-0.0225 0.0441,-0.0225 z"
       inkscape:connector-curvature="0" />
    <path
       style="fill:#ffffff;stroke:#ffffff;stroke-width:0.26458332"
       id="path133"
       d="m 86.708273,253.31974 c 0.0582,0.0989 0.0804,0.21406 0.106267,0.32448 0.03829,0.16154 0.06903,0.32467 0.09472,0.48864 0.01032,0.0638 0.01437,0.12832 0.01865,0.19273 0,0 -0.04227,0.0219 -0.04227,0.0219 v 0 c -0.0042,-0.0643 -0.0083,-0.1287 -0.01828,-0.19244 -0.02508,-0.16401 -0.05499,-0.32726 -0.09403,-0.48858 -0.02633,-0.10959 -0.04839,-0.22459 -0.107899,-0.32199 0,0 0.04286,-0.0247 0.04286,-0.0247 z"
       inkscape:connector-curvature="0" />
    <path
       style="fill:#ffffff;stroke:#ffffff;stroke-width:0.26458332px;stroke-linecap:butt;stroke-linejoin:miter;stroke-opacity:1"
       d="m 93.304015,254.04948 c -0.07707,-10.11921 2.378474,-9.60137 2.378474,-9.60137 0,0 2.939966,11.62622 2.305201,11.55941 -0.634764,-0.0668 -4.683675,-1.95804 -4.683675,-1.95804 z"
       id="path4643"
       inkscape:connector-curvature="0" />
    <path
       style="fill:#ffffff;stroke:#ffffff;stroke-width:0.26458332px;stroke-linecap:butt;stroke-linejoin:miter;stroke-opacity:1"
       d="m 112.85456,243.67971 c 16.23662,1.46998 16.23662,1.46998 16.23662,1.46998 l -0.14519,8.89979 -18.49686,1.85781 z"
       id="path4645"
       inkscape:connector-curvature="0" />
    <path
       style="fill:#000000;stroke:#000000;stroke-width:0.26458332"
       id="path4647"
       d="m 90.785023,242.93417 c 0.216479,0.22314 0.406733,0.4729 0.564713,0.74064 0.146251,0.27648 0.140245,0.59563 0.147863,0.9002 0.0024,0.47886 -0.0044,0.95677 0.028,1.43472 0.04899,0.36533 0.10754,0.72872 0.137954,1.09627 0.05237,0.3223 0.161557,0.63045 0.235291,0.94788 0.05209,0.34814 0.08051,0.69988 0.11311,1.05048 0.03685,0.42919 0.04321,0.86024 0.05037,1.29073 0.0024,0.15135 0.0034,0.30271 0.0043,0.45408 0,0 -0.246256,0.12556 -0.246256,0.12556 v 0 c 5.3e-5,-0.15176 7.4e-5,-0.30352 -0.0013,-0.45528 -0.0047,-0.42994 -0.01164,-0.86035 -0.04908,-1.28893 -0.03312,-0.34908 -0.06339,-0.6991 -0.113969,-1.04594 -0.07213,-0.31927 -0.181531,-0.62859 -0.236294,-0.95184 -0.02942,-0.3681 -0.08604,-0.73225 -0.13539,-1.09803 -0.0318,-0.47818 -0.02416,-0.95624 -0.0293,-1.43527 -0.0089,-0.29945 -0.0035,-0.61345 -0.144481,-0.88633 -0.155763,-0.26775 -0.344313,-0.51828 -0.56556,-0.73547 0,0 0.240041,-0.14347 0.240041,-0.14347 z"
       inkscape:connector-curvature="0" />
    <path
       style="fill:#000000;stroke:#000000;stroke-width:0.26458332"
       id="path4649"
       d="m 92.36975,243.43095 c 0.08122,0.0652 0.144478,0.1476 0.210698,0.22717 0.06477,0.0722 0.133467,0.14356 0.176882,0.23118 0.03446,0.0966 0.05684,0.19699 0.08628,0.29524 0.03083,0.10931 0.06867,0.2164 0.102494,0.32481 0.02397,0.0984 0.03589,0.19904 0.07236,0.29404 0.04942,0.1134 0.08126,0.23345 0.10994,0.35346 0.03734,0.21791 0.04581,0.43919 0.06386,0.65918 0.01818,0.2128 0.0182,0.42647 0.02923,0.6396 0.0109,0.11242 0.0076,0.22609 0.01754,0.33851 0.01135,0.12803 0.03633,0.25586 0.0543,0.38307 0.03924,0.28084 0.04905,0.56432 0.0552,0.84743 0.0043,0.23744 0.0046,0.47492 0.0052,0.7124 -0.0064,0.12655 0.0079,0.25191 0.02024,0.37751 0.0013,0.016 0.0028,0.0319 0.0041,0.0479 0,0 -0.08665,0.0451 -0.08665,0.0451 v 0 c -0.0013,-0.016 -0.0026,-0.0319 -0.0039,-0.0479 -0.01217,-0.12622 -0.02598,-0.25222 -0.01876,-0.37933 0.0011,-0.23786 0.0013,-0.47574 -0.0024,-0.71357 -0.0062,-0.28266 -0.01617,-0.56575 -0.05526,-0.84614 -0.01828,-0.12729 -0.04391,-0.25529 -0.05565,-0.38339 -0.01029,-0.11226 -0.0065,-0.2259 -0.0181,-0.33814 -0.01161,-0.21304 -0.01008,-0.42674 -0.02896,-0.63945 -0.01744,-0.21941 -0.02551,-0.44026 -0.06424,-0.6573 -0.02912,-0.11938 -0.0619,-0.2385 -0.111104,-0.35139 -0.03664,-0.0952 -0.04877,-0.196 -0.07228,-0.29483 -0.03328,-0.10859 -0.07154,-0.21559 -0.102719,-0.3248 -0.02894,-0.0978 -0.05147,-0.19761 -0.08612,-0.29346 -0.04241,-0.0872 -0.110617,-0.15799 -0.17444,-0.22991 -0.06573,-0.0787 -0.128775,-0.16041 -0.210809,-0.22323 0,0 0.08311,-0.0538 0.08311,-0.0538 z"
       inkscape:connector-curvature="0" />
    <path
       style="fill:#000000;stroke:#000000;stroke-width:0.26458332"
       id="path4651"
       d="m 91.937495,249.27719 c -0.231055,-0.44975 -0.360516,-0.943 -0.496784,-1.42734 -0.195543,-0.76331 -0.436444,-1.51304 -0.705779,-2.25316 -0.09125,-0.24121 -0.172286,-0.48651 -0.267877,-0.72611 -0.02957,-0.0741 -0.07937,-0.19896 -0.130694,-0.2669 -0.01773,-0.0235 -0.04354,-0.0395 -0.06531,-0.0593 -0.02,0.002 -0.04471,-0.009 -0.06002,0.004 -0.0094,0.008 0.03182,0.008 0.03084,0.0203 -0.0039,0.0488 -0.0333,0.0923 -0.04368,0.14011 -0.05794,0.26681 -0.05968,0.54726 -0.07317,0.81839 -0.03147,0.69661 -5.29e-4,1.39442 0.0867,2.08589 0.03126,0.19052 0.03595,0.23126 0.07195,0.40966 0.0078,0.0386 0.01593,0.0771 0.02537,0.11537 0.0024,0.01 0.0199,0.0259 0.01016,0.0283 -0.13608,0.0325 -0.111987,-0.033 -0.151178,-0.1433 -0.206324,-0.58363 -0.400052,-1.17145 -0.583498,-1.76268 -0.08199,-0.2304 -0.126429,-0.47285 -0.204015,-0.7045 -0.05765,-0.17213 -0.01611,-0.0979 -0.112313,-0.17015 -0.0081,-0.006 0.01799,0.009 0.02699,0.014 -0.02196,0.0533 -0.04822,0.1051 -0.06587,0.16002 -0.04972,0.15469 -0.114932,0.45939 -0.141885,0.60421 -0.0783,0.42073 -0.123566,0.84445 -0.165796,1.26992 -0.02853,0.35785 -0.04449,0.71711 -0.04169,1.07618 7.94e-4,0.10564 0.0054,0.27969 0.02072,0.39129 0.0053,0.0385 0.01609,0.076 0.02413,0.114 0.113128,0.0341 -0.01842,0.0675 -0.01937,0.0497 -0.0024,-0.0428 0.03231,-0.0796 0.04333,-0.12098 0.01656,-0.0622 0.02862,-0.12561 0.03927,-0.18911 0.03409,-0.2032 0.03997,-0.32198 0.05864,-0.53274 0.04801,-0.69964 0.04466,-1.40128 0.05536,-2.1021 0.0011,-0.2236 0.01172,-0.4471 0.01352,-0.67068 2.64e-4,-0.0385 7.93e-4,-0.077 -0.0013,-0.11545 -7.94e-4,-0.0136 -0.02035,-0.0343 -0.008,-0.0401 0.02244,-0.0107 0.0494,0.006 0.07409,0.009 -0.0056,0.0432 -0.01259,0.0863 -0.01685,0.12963 -0.01394,0.14198 -0.0227,0.31732 -0.02865,0.45706 -0.0084,0.19692 -0.01664,0.38098 -0.0052,0.57821 0.0053,0.0903 0.01863,0.17987 0.02796,0.2698 0.01347,0.0753 0.02442,0.15105 0.04042,0.22583 0.02029,0.0948 0.04153,0.21438 0.112368,0.29092 0.05638,0.0609 0.111964,0.0478 0.170442,-0.005 0.01744,-0.0158 0.01855,-0.0433 0.02782,-0.0649 0.279421,-0.43222 0.43579,-0.93035 0.578127,-1.42113 0.05337,-0.19193 0.09342,-0.38696 0.130607,-0.5825 0.0066,-0.0345 0.01225,-0.0692 0.01955,-0.10351 0.0016,-0.007 -2.64e-4,-0.0225 0.0069,-0.021 0.02611,0.006 0.04714,0.0251 0.07071,0.0377 -0.01304,0.0576 -0.02447,0.11551 -0.0391,0.17269 -0.05092,0.1991 -0.112514,0.39536 -0.16424,0.59426 -0.09419,0.36216 -0.169381,0.72788 -0.241659,1.09487 -0.02225,0.12405 -0.07686,0.36627 -0.06727,0.50725 0.0021,0.0303 0.007,0.0717 0.03458,0.0844 0.07887,0.0363 0.09119,-0.13011 0.09468,-0.13785 0.04076,-0.0905 0.09257,-0.17563 0.138856,-0.26344 0.165026,-0.34792 0.278196,-0.71612 0.377545,-1.08712 0.03668,-0.13696 0.1242,-0.49106 0.153982,-0.64245 0.01487,-0.0756 0.02413,-0.15215 0.03619,-0.22822 0.229296,-0.0216 -0.04789,-0.15686 -5.29e-4,-0.20721 0.0122,-0.013 0.05306,-0.008 0.05256,0.009 -0.0013,0.0511 -0.04072,0.094 -0.05686,0.14259 -0.05485,0.16493 -0.08571,0.31228 -0.126368,0.48234 -0.05589,0.25615 -0.108511,0.51342 -0.147357,0.7728 -0.01397,0.0932 -0.03357,0.24428 -0.03563,0.34345 -7.94e-4,0.0369 0.0036,0.0738 0.0054,0.11064 0.01442,0.08 0.0417,0.12264 0.128138,0.10758 0.0029,-5.3e-4 -0.0026,-0.007 -7.94e-4,-0.009 0.196358,-0.24018 -0.0094,0.0456 0.200528,-0.26001 0.166455,-0.27763 0.301583,-0.57352 0.401833,-0.88136 0.05829,-0.179 0.07394,-0.25798 0.117113,-0.43666 0.176998,-0.0356 -0.02804,-0.15202 0.01312,-0.20799 0.01127,-0.0153 0.05513,-0.0248 0.05677,-0.006 0.004,0.046 -0.03251,0.0866 -0.04594,0.13078 -0.04835,0.15919 -0.07057,0.27147 -0.108383,0.43686 -0.05095,0.22936 -0.09512,0.46019 -0.133978,0.6919 -0.01167,0.0695 -0.03899,0.22177 -0.03819,0.29999 2.64e-4,0.032 0.009,0.0635 0.01357,0.0952 0.07309,0.14338 0.0714,0.0879 0.14578,-0.0232 0.09638,-0.14392 0.08657,-0.1397 0.166515,-0.30591 0.171371,-0.41595 0.22927,-0.86228 0.267896,-1.30681 -0.0024,-0.11608 0.02606,-0.24567 -0.01333,-0.35956 -0.0054,-0.0158 -0.01135,-0.0396 -0.02792,-0.0415 -0.07147,-0.008 -0.04117,0.0765 -0.0384,0.0985 -0.279037,0.58864 -0.416041,1.22807 -0.534762,1.86446 -0.04176,0.27336 -0.102773,0.54492 -0.122243,0.82141 -0.0042,0.0596 -0.01259,0.20197 0.01617,0.2692 0.0089,0.0208 0.03148,0.0325 0.04722,0.0488 0.02432,-0.0118 0.05322,-0.0169 0.07297,-0.0353 0.01262,-0.0118 0.0076,-0.0345 0.01717,-0.0488 0.145921,-0.21862 0.06412,-0.0364 0.196284,-0.27942 0.08918,-0.16399 0.09399,-0.20846 0.153437,-0.39044 0.01513,-0.0822 0.04266,-0.16312 0.04543,-0.24668 0.0064,-0.19353 -0.05183,-0.49956 -0.09124,-0.68385 -0.06892,-0.32227 -0.169087,-0.63269 -0.27541,-0.94399 -0.06926,-0.17318 -0.205324,-0.70142 -0.504057,-0.54251 -0.02458,0.0131 -0.03511,0.0432 -0.05267,0.0648 -0.04485,0.0622 -0.09641,0.12015 -0.134556,0.18671 -0.0987,0.17219 -0.165007,0.37143 -0.215143,0.5618 -0.0908,0.34476 -0.127024,0.69565 -0.159989,1.04934 -0.02156,0.27995 -0.02159,0.56175 0.02212,0.83966 0.01508,0.096 0.04012,0.21707 0.08349,0.30771 0.01479,0.0309 0.03752,0.0573 0.05628,0.086 0.03961,0.0277 0.07842,0.0682 0.13372,0.0594 0.0081,-0.001 -0.01315,-0.0142 -0.01087,-0.022 0.02082,-0.0723 0.05853,-0.13919 0.0782,-0.21186 0.07301,-0.26968 0.103701,-0.53681 0.145127,-0.81292 0.09369,-0.83149 0.156858,-1.66901 0.147169,-2.50625 -0.02841,-0.20975 0.01461,-0.1277 -0.0676,-0.22982 -0.0059,-0.007 0.02148,0.0124 0.01847,0.0212 -0.02426,0.0711 -0.06839,0.134 -0.09539,0.20406 -0.09845,0.25543 -0.144793,0.46152 -0.216551,0.72973 -0.117036,0.45289 -0.194447,0.9143 -0.250671,1.37829 -0.01611,0.13303 -0.05835,0.51691 -0.05875,0.6773 -1.24e-4,0.0506 0.01095,0.10065 0.01643,0.15098 0.01498,0.008 0.03394,0.0365 0.04496,0.0237 0.01209,-0.0141 -0.02503,-0.0335 -0.02101,-0.0516 0.01492,-0.0671 0.05394,-0.12673 0.07519,-0.19213 0.09213,-0.2836 0.145177,-0.58002 0.205036,-0.87147 0.05433,-0.31104 0.125082,-0.62158 0.141108,-0.93788 0.02948,-0.0114 0.05866,-0.0449 0.08845,-0.0343 0.0204,0.007 -0.0013,0.0433 -0.0026,0.0649 -0.0085,0.14905 -0.02045,0.29786 -0.02856,0.44696 7.1e-5,0.0909 -0.02019,0.38129 0.124565,0.39314 0.03017,0.002 0.05919,-0.0128 0.08879,-0.0191 0.01215,-0.0141 0.02318,-0.0292 0.03646,-0.0423 0.15667,-0.15413 0.141298,-0.11351 0.284739,-0.30329 0.166026,-0.21966 0.291989,-0.46285 0.417595,-0.70658 0.169013,-0.39956 0.335076,-0.81051 0.406315,-1.2408 0.0019,-0.0527 0.0094,-0.0933 -0.0063,-0.14313 -0.0024,-0.008 -0.0062,-0.019 -0.01439,-0.0202 -0.0082,-0.001 -0.02769,0.0125 -0.01982,0.0152 0.07813,0.0265 0.07936,-0.0669 0.02971,0.0833 -0.0753,0.28585 -0.105846,0.58032 -0.144854,0.87251 -0.03538,0.23902 -0.06304,0.47886 -0.07623,0.72012 -2.25e-4,0.28797 0.03099,0.57469 0.0702,0.85959 0.02254,0.13999 0.03771,0.28105 0.05769,0.42138 0.0046,0.0323 0.0089,0.0646 0.01582,0.0965 0.0032,0.0148 0.02447,0.0317 0.01445,0.0429 -0.0182,0.0204 -0.05155,0.0185 -0.07732,0.0278 0.0036,-0.0219 0.0085,-0.0437 0.01072,-0.0658 0.0079,-0.0808 0.01188,-0.23834 0.01352,-0.30793 0.0064,-0.27249 0.007,-0.54507 0.0081,-0.81762 -5.3e-4,-0.43427 -2.65e-4,-0.86853 -0.0021,-1.30279 -2.65e-4,-0.0478 -5.29e-4,-0.0957 -7.94e-4,-0.14353 -5.29e-4,-0.0776 -0.0024,-0.12127 0.0021,-0.19488 5.29e-4,-0.01 -0.0049,-0.0249 0.0039,-0.0283 0.125862,-0.0481 0.102582,-0.0213 0.12554,0.0719 0.04565,0.24759 0.06547,0.49889 0.105235,0.74736 0.02162,0.13501 0.04759,0.26928 0.07105,0.40398 0.05474,0.32167 0.08787,0.6462 0.102933,0.972 0.0013,0.0403 0.0029,0.0806 0.0039,0.12085 0.0029,0.11252 -0.0011,0.11608 0.01119,0.22558 0.01209,0.10749 0.03575,0.21303 0.05691,0.31896 0.04708,0.1874 0.106455,0.37081 0.1431,0.56076 0,0 -0.08485,0.0453 -0.08485,0.0453 v 0 c -0.03516,-0.19037 -0.09381,-0.3741 -0.14164,-0.56143 -0.02117,-0.10625 -0.04517,-0.21218 -0.05731,-0.31998 -0.01204,-0.10706 -0.0085,-0.11665 -0.01087,-0.2263 -7.94e-4,-0.0403 -0.0021,-0.0807 -0.0033,-0.12099 -0.0141,-0.32592 -0.04407,-0.65095 -0.09901,-0.97274 -0.02339,-0.13482 -0.04928,-0.26923 -0.07095,-0.40434 -0.03968,-0.24739 -0.05915,-0.49786 -0.110493,-0.74339 -0.02609,-0.0966 -0.04711,-0.0841 0.04736,-0.1606 0.0075,-0.006 -0.0059,0.0186 -0.007,0.0282 -0.0029,0.0266 -0.0041,0.0533 -0.0049,0.08 -0.0024,0.0867 0.0016,0.17356 -0.0013,0.26027 -0.0013,0.43519 -2.64e-4,0.87039 -0.0032,1.30557 -0.0011,0.39663 0.0068,0.79443 -0.01704,1.19038 -0.03316,0.0195 -0.06124,0.0542 -0.09947,0.0587 -0.01561,0.002 -0.0097,-0.03 -0.01267,-0.0454 -0.0062,-0.0323 -0.0104,-0.0649 -0.01474,-0.0974 -0.01873,-0.14076 -0.0332,-0.28214 -0.05528,-0.42248 -0.03936,-0.28491 -0.07301,-0.57128 -0.0747,-0.85929 0.01392,-0.24212 0.04265,-0.48265 0.07921,-0.72239 0.03837,-0.29201 0.06946,-0.58572 0.140549,-0.87224 0.0086,-0.0288 0.0082,-0.062 0.02585,-0.0863 0.07196,-0.0992 0.15527,-0.16426 0.159829,-0.02 0.0011,0.0298 -0.0029,0.0596 -0.0043,0.0893 -0.07632,0.43195 -0.244478,0.84447 -0.413179,1.24702 -0.171434,0.33496 -0.391988,0.77271 -0.693726,1.01058 -0.06266,0.0494 -0.132295,0.0893 -0.198443,0.13389 -0.03111,0.005 -0.06213,0.0188 -0.09332,0.0145 -0.149056,-0.0204 -0.127418,-0.30495 -0.127958,-0.40372 0.0066,-0.11691 0.01381,-0.23375 0.02088,-0.35062 0.0019,-0.0316 0.0042,-0.0632 0.0053,-0.0948 7.93e-4,-0.0211 -0.01246,-0.0464 1.9e-4,-0.0633 0.02077,-0.0277 0.05887,-0.0366 0.0883,-0.0549 -0.03659,0.31736 -0.08772,0.63233 -0.153456,0.94516 -0.03801,0.18476 -0.08457,0.41904 -0.12886,0.60224 -0.02172,0.0899 -0.04372,0.17977 -0.07078,0.26818 -0.04611,0.15068 -0.06839,0.25009 -0.217141,0.3341 -0.01627,0.009 -0.02979,-0.0225 -0.04468,-0.0338 -0.0036,-0.0518 -0.0122,-0.1035 -0.01082,-0.15542 0.0039,-0.14836 0.05201,-0.56509 0.06661,-0.68179 0.05799,-0.46358 0.13395,-0.92495 0.248504,-1.37828 0.07089,-0.27436 0.112424,-0.46529 0.206558,-0.72656 0.04668,-0.12957 0.08155,-0.27264 0.240265,-0.31137 0.08019,-0.0196 0.02537,0.35968 0.06155,0.23985 -0.0019,0.83913 -0.06768,1.67781 -0.155649,2.51185 -0.02106,0.14892 -0.03869,0.29837 -0.06319,0.44676 -0.0062,0.0379 -0.07959,0.48761 -0.140719,0.57565 -0.03667,0.0528 -0.09717,0.0878 -0.156279,0.11308 -0.0412,0.0176 -0.114887,-0.0508 -0.136239,-0.0667 -0.01863,-0.0296 -0.0413,-0.057 -0.05585,-0.0888 -0.04188,-0.0915 -0.0658,-0.21606 -0.07983,-0.31198 -0.04092,-0.27965 -0.03982,-0.56277 -0.01741,-0.84402 0.03326,-0.35366 0.06901,-0.70498 0.157774,-1.05018 0.04892,-0.19021 0.113413,-0.38925 0.209602,-0.56225 0.03705,-0.0667 0.08723,-0.12512 0.130853,-0.18767 0.08549,-0.0628 0.203343,-0.19662 0.336859,-0.17851 0.232387,0.0315 0.307168,0.41436 0.378505,0.58123 0.104233,0.31252 0.203195,0.62418 0.272913,0.94668 0.03718,0.17199 0.101666,0.50201 0.09773,0.68396 -0.0019,0.0836 -0.02905,0.16473 -0.04358,0.24709 -0.02249,0.0707 -0.04087,0.14284 -0.06747,0.2121 -0.05305,0.13812 -0.168981,0.35448 -0.276344,0.45993 -0.05446,0.0535 -0.114607,0.1017 -0.178429,0.1436 -0.02347,0.0154 -0.0534,0.0174 -0.08011,0.0261 -0.01603,-0.0182 -0.0391,-0.0321 -0.04811,-0.0546 -0.02752,-0.0687 -0.01717,-0.21355 -0.01214,-0.27417 0.02302,-0.27779 0.08637,-0.55038 0.128817,-0.8253 0.118827,-0.63446 0.255183,-1.27098 0.522412,-1.86236 0.05088,-0.0547 0.09687,-0.1144 0.152638,-0.16411 0.01469,-0.0131 0.03625,-0.0266 0.05509,-0.021 0.01714,0.005 0.02257,0.0287 0.0281,0.0458 0.03776,0.11621 0.0086,0.24634 0.0095,0.36435 -0.04133,0.44494 -0.09806,0.89177 -0.266348,1.3096 -0.08723,0.18607 -0.06046,0.14571 -0.162946,0.30598 -0.02326,0.0364 -0.0392,0.0796 -0.07212,0.10753 -0.04506,0.0382 -0.09872,0.0685 -0.155358,0.0852 -0.01918,0.006 -0.04142,-0.009 -0.05557,-0.0228 -0.0172,-0.0172 -0.02164,-0.0435 -0.03247,-0.0653 -0.0043,-0.0326 -0.01291,-0.065 -0.01291,-0.0979 -2.1e-5,-0.0776 0.0295,-0.23401 0.04151,-0.3025 0.04066,-0.23189 0.0855,-0.46306 0.135578,-0.69311 0.04252,-0.19332 0.05269,-0.2527 0.102856,-0.43517 0.02537,-0.0923 0.0304,-0.19487 0.159055,-0.20962 0.07137,-0.008 -0.134835,0.33923 -0.01876,0.21469 -0.04333,0.17628 -0.0612,0.262 -0.1186,0.43838 -0.100065,0.30744 -0.233791,0.60328 -0.397661,0.88194 -0.107918,0.16099 -0.1715,0.28312 -0.361061,0.36182 -0.04197,0.0174 -0.09313,-0.009 -0.113614,-0.0453 -0.01291,-0.0228 -0.01333,-0.0506 -0.02,-0.0759 -0.0013,-0.0375 -0.0052,-0.0751 -0.004,-0.11259 0.0032,-0.0983 0.02492,-0.2544 0.03929,-0.34618 0.04065,-0.2596 0.09402,-0.51714 0.148728,-0.77406 0.03908,-0.169 0.0695,-0.31605 0.12024,-0.48076 0.03167,-0.10278 0.04974,-0.20125 0.173638,-0.23685 0.06876,-0.0198 -0.128045,0.39365 -0.0062,0.21455 -0.0131,0.0768 -0.02358,0.15406 -0.03932,0.23034 -0.02974,0.14416 -0.123491,0.51609 -0.158184,0.64491 -0.09964,0.36998 -0.210685,0.73786 -0.372107,1.08642 -0.118549,0.23383 -0.116366,0.28985 -0.316799,0.45894 -0.02053,0.0173 -0.05434,0.0376 -0.07711,0.0234 -0.02711,-0.017 -0.02944,-0.0589 -0.03076,-0.0909 -0.0059,-0.14254 0.0499,-0.38552 0.07347,-0.51145 0.07355,-0.36664 0.149008,-0.7325 0.240856,-1.09512 0.02932,-0.11577 0.124648,-0.45633 0.156451,-0.58999 0.01344,-0.0564 0.02305,-0.11372 0.03457,-0.17058 0.03524,-0.0402 0.06907,-0.0817 0.105722,-0.12056 0.0055,-0.006 -0.0097,0.0132 -0.0118,0.0209 -0.0093,0.0344 -0.015,0.0698 -0.02217,0.10473 -0.04027,0.19632 -0.08048,0.39271 -0.135337,0.58566 -0.142404,0.49036 -0.299053,0.98668 -0.570973,1.42264 -0.01942,0.0165 -0.195823,0.20157 -0.286819,0.19797 -0.0299,-0.001 -0.05742,-0.0234 -0.07708,-0.046 -0.121436,-0.13935 -0.105257,-0.35777 -0.148153,-0.52355 -0.0091,-0.0903 -0.02204,-0.18034 -0.02728,-0.27097 -0.02236,-0.38658 0.01019,-0.77613 0.03825,-1.16141 0.03343,-0.0322 0.05888,-0.0756 0.100303,-0.0965 0.01296,-0.007 0.0049,0.0288 0.0053,0.0433 0.0011,0.039 -1.8e-4,0.0781 -0.0011,0.11707 -0.0056,0.22476 -0.01762,0.44937 -0.02066,0.6742 -0.01429,0.70067 -0.0099,1.4021 -0.05365,2.10187 -0.01738,0.21771 -0.02127,0.32221 -0.05342,0.53126 -0.0097,0.0633 -0.02098,0.12639 -0.03572,0.18869 -0.0241,0.10191 -0.03526,0.17901 -0.162303,0.2056 -0.01895,0.004 -0.01939,-0.0335 -0.02909,-0.0503 -0.0075,-0.0387 -0.01767,-0.077 -0.02238,-0.1162 -0.01336,-0.11154 -0.01537,-0.2903 -0.01495,-0.39516 0.0016,-0.36046 0.01984,-0.72089 0.0481,-1.08017 0.04156,-0.42483 0.08696,-0.84802 0.16138,-1.26868 0.0258,-0.14575 0.08658,-0.44549 0.132612,-0.60143 0.01627,-0.0551 0.03996,-0.10774 0.05994,-0.16161 0.04765,-0.0342 0.08662,-0.0862 0.142941,-0.10249 0.04818,-0.014 0.08497,0.10124 0.10975,0.17908 0.07424,0.23319 0.117247,0.47613 0.197961,0.70753 0.180679,0.59136 0.374806,1.17844 0.59164,1.7576 0.05019,0.12779 0.09563,0.13339 -0.0163,0.23535 -0.0078,0.007 -0.0044,-0.0207 -0.0063,-0.0311 -0.0076,-0.039 -0.01521,-0.0781 -0.02236,-0.11719 -0.03842,-0.21047 -0.03228,-0.18215 -0.06775,-0.41247 -0.08189,-0.69277 -0.111969,-1.39096 -0.08498,-2.08836 0.0089,-0.21418 0.01275,-0.39214 0.03435,-0.60348 0.0073,-0.0711 0.01564,-0.14233 0.0292,-0.21255 0.02762,-0.14301 0.03502,-0.17783 0.174734,-0.25713 0.01826,-0.0104 0.04195,0.002 0.06292,0.003 0.02162,0.021 0.0472,0.0385 0.06485,0.0629 0.05125,0.0708 0.09813,0.19298 0.127833,0.27019 0.09277,0.24117 0.171252,0.48772 0.261112,0.72994 0.265922,0.74146 0.50682,1.49138 0.705628,2.25388 0.138237,0.48147 0.267478,0.97462 0.509889,1.41649 0,0 -0.08413,0.0496 -0.08413,0.0496 z"
       inkscape:connector-curvature="0" />
    <path
       style="fill:#000000;stroke:#000000;stroke-width:0.26458332"
       id="path4653"
       d="m 89.282089,245.66808 c 0.02914,0.36353 0.09032,0.72402 0.145378,1.08434 0.06036,0.40866 0.111228,0.81897 0.198456,1.22315 0.04669,0.21631 0.06444,0.26703 0.122682,0.47147 0.07403,0.23221 0.03634,0.12238 0.111763,0.32992 0,0 -0.0804,0.0445 -0.0804,0.0445 v 0 c -0.0734,-0.20915 -0.03668,-0.0986 -0.108926,-0.33219 -0.05502,-0.19951 -0.07572,-0.26375 -0.120131,-0.47367 -0.08561,-0.40467 -0.135398,-0.81515 -0.198213,-1.22361 -0.05768,-0.35858 -0.120769,-0.71707 -0.15757,-1.0785 0,0 0.08696,-0.0454 0.08696,-0.0454 z"
       inkscape:connector-curvature="0" />
    <path
       style="fill:#000000;stroke:#000000;stroke-width:0.26458332"
       id="path4655"
       d="m 90.347775,245.05098 c -0.01519,0.34015 0.01617,0.67877 0.04709,1.01709 0.03349,0.47409 0.106924,0.94396 0.172284,1.41436 0,0 -0.07762,0.0409 -0.07762,0.0409 v 0 c -0.06163,-0.47128 -0.133879,-0.94156 -0.170455,-1.4157 -0.03303,-0.3365 -0.06624,-0.67309 -0.05947,-1.01169 0,0 0.08817,-0.0449 0.08817,-0.0449 z"
       inkscape:connector-curvature="0" />
    <path
       style="fill:#000000;stroke:#000000;stroke-width:0.26458332"
       id="path4657"
       d="m 89.679506,246.4916 c -0.0031,0.31673 -0.01437,0.63407 0.01606,0.94994 0.0078,0.0806 0.02019,0.16067 0.03028,0.24101 0.02048,0.17002 0.05737,0.33721 0.09288,0.50449 0,0 -0.08289,0.0443 -0.08289,0.0443 v 0 c -0.03124,-0.16903 -0.06702,-0.3373 -0.08731,-0.50817 -0.01,-0.0806 -0.02222,-0.16088 -0.03004,-0.24168 -0.0304,-0.31429 -0.02056,-0.62988 -0.02695,-0.94506 0,0 0.08798,-0.0448 0.08798,-0.0448 z"
       inkscape:connector-curvature="0" />
    <path
       style="fill:#000000;stroke:#000000;stroke-width:0.12626907"
       d="m 351.51644,691.5495 c -0.06,-0.15644 -0.30806,-0.19485 -1.25837,-0.19485 h -1.1836 l -0.28167,-1.14853 c -0.17309,-0.70577 -0.32517,-1.87538 -0.3945,-3.03402 -0.0621,-1.03702 -0.2548,-2.77882 -0.42831,-3.87067 -0.48758,-3.06822 -0.53194,-2.749 0.48825,-3.51337 l 0.87571,-0.6561 0.21313,0.2714 c 0.11722,0.14927 0.39549,0.92485 0.61838,1.7235 0.22288,0.79865 0.54213,1.89387 0.70943,2.43383 0.22915,0.73954 0.33687,1.50273 0.43667,3.09359 0.0729,1.16152 0.18242,2.76513 0.24345,3.56358 0.1106,1.44697 0.10324,1.70118 -0.0386,1.33164 z"
       id="path4659"
       inkscape:connector-curvature="0"
       transform="matrix(0.26458333,0,0,0.26458333,0,64.16665)" />
    <path
       style="fill:#000000;stroke:#000000;stroke-width:0.12626907"
       d="m 346.96303,690.93141 c -0.0491,-0.26186 -0.0127,-0.55186 0.0956,-0.76057 l 0.17501,-0.33732 0.0797,0.47646 c 0.0438,0.26205 0.11475,0.60431 0.15761,0.76057 0.062,0.22608 0.0262,0.2841 -0.17528,0.2841 -0.18729,0 -0.27389,-0.1102 -0.33262,-0.42324 z"
       id="path4661"
       inkscape:connector-curvature="0"
       transform="matrix(0.26458333,0,0,0.26458333,0,64.16665)" />
    <path
       style="fill:#000000;stroke:#000000;stroke-width:0.26458332"
       id="path4663"
       d="m 88.775801,242.02456 c 0.158885,0.1428 0.339926,0.258 0.514223,0.38069 0.131529,0.0839 0.250793,0.19034 0.350202,0.31088 0.05149,0.0624 0.09779,0.12897 0.147307,0.19297 0.08016,0.12148 0.167958,0.24017 0.239937,0.36694 0.02484,0.0437 0.0676,0.13736 0.08961,0.18443 0.07427,0.13925 0.08259,0.29353 0.102447,0.44608 0.03191,0.19169 0.134839,0.36001 0.227555,0.5276 0.08905,0.12714 0.128563,0.27213 0.157829,0.42203 0.01823,0.10957 0.06122,0.21133 0.108551,0.31092 0.04328,0.0955 0.09394,0.18761 0.142986,0.28037 0.0787,0.13894 0.166251,0.27229 0.259074,0.40221 0.07569,0.11694 0.167601,0.22173 0.263375,0.32241 0.08574,0.086 0.148412,0.18959 0.206435,0.29528 0.0615,0.11886 0.08003,0.25222 0.104172,0.38218 0.02772,0.16942 0.06153,0.3374 0.08167,0.50799 0.01963,0.12799 0.01394,0.25749 0.01574,0.38637 7.94e-4,0.0513 0.0091,0.102 0.01672,0.15261 0,0 -1.498687,0.78467 -1.498687,0.78467 v 0 c -0.0044,-0.0584 -0.0091,-0.1168 -0.01299,-0.17525 0.0013,-0.12617 -0.0041,-0.25238 -0.0026,-0.37859 -0.0065,-0.16515 -0.01897,-0.33138 -0.06671,-0.49057 -0.02823,-0.11248 -0.05846,-0.22678 -0.10663,-0.33236 -0.04331,-0.0962 -0.101521,-0.18295 -0.169799,-0.26336 -0.09741,-0.11104 -0.19117,-0.22551 -0.269259,-0.35131 -0.08152,-0.14128 -0.180445,-0.2706 -0.276643,-0.40193 -0.0586,-0.0942 -0.115062,-0.18986 -0.160054,-0.29148 -0.04647,-0.11449 -0.09102,-0.22944 -0.115282,-0.35131 -0.02408,-0.13458 -0.0424,-0.26882 -0.112429,-0.38993 -0.09317,-0.18483 -0.181195,-0.37257 -0.258794,-0.56452 -0.01953,-0.0731 -0.0254,-0.0841 -0.03423,-0.15571 -0.01106,-0.0897 -0.0136,-0.18083 -0.04454,-0.26717 -0.06704,-0.19022 -0.179396,-0.35961 -0.291579,-0.52609 -0.127106,-0.17835 -0.28321,-0.33609 -0.45997,-0.46569 -0.178859,-0.12433 -0.361323,-0.24922 -0.571543,-0.31451 0,0 1.423863,-0.93685 1.423863,-0.93685 z"
       inkscape:connector-curvature="0" />
    <path
       style="fill:#000000;stroke:#000000;stroke-width:0.26458332"
       id="path4665"
       d="m 90.755416,242.26168 c 0.09033,0.1524 0.17513,0.30799 0.258913,0.46408 0.09982,0.17778 0.188267,0.361 0.291399,0.53694 0.09095,0.17504 0.186574,0.34735 0.281062,0.52045 0.06958,0.12286 0.122967,0.25376 0.176027,0.38432 0.06297,0.13178 0.123481,0.2648 0.188045,0.3958 0.04262,0.0933 0.108378,0.17146 0.165647,0.25555 0.04738,0.0874 0.09504,0.17412 0.154901,0.25365 0.07342,0.10172 0.140824,0.20876 0.203549,0.31752 0.07486,0.13063 0.106751,0.25291 0.134972,0.39879 0.01807,0.13118 0.05682,0.25631 0.100004,0.38089 0.03953,0.11906 0.04138,0.24475 0.04237,0.36893 -0.0097,0.16361 -0.0046,0.32728 -2.65e-4,0.49091 0.0034,0.10731 0.0079,0.21457 0.01204,0.32186 0.0028,0.0709 0.0034,0.14176 0.0037,0.21266 1.83e-4,0.0554 1.38e-4,0.11069 1.17e-4,0.16603 0,0 -1.520714,0.77484 -1.520714,0.77484 v 0 c -2.4e-5,-0.0554 -7.4e-5,-0.11076 1.08e-4,-0.16614 2.65e-4,-0.0722 0.0011,-0.14449 0.0038,-0.21669 0.0044,-0.11161 0.0091,-0.2232 0.01304,-0.33482 0.0047,-0.16135 0.01154,-0.32299 -0.0029,-0.48414 -0.0049,-0.10953 -0.0085,-0.21957 -0.03123,-0.32726 -0.02942,-0.13368 -0.07572,-0.26383 -0.09463,-0.39937 -0.02389,-0.11943 -0.05148,-0.24107 -0.115644,-0.34614 -0.05973,-0.1028 -0.123203,-0.20286 -0.19531,-0.29745 -0.06408,-0.0828 -0.124277,-0.16785 -0.175688,-0.25928 -0.05388,-0.0944 -0.11456,-0.1853 -0.157488,-0.2856 -0.05792,-0.13509 -0.112305,-0.27203 -0.182507,-0.40125 -0.06091,-0.12528 -0.117279,-0.25136 -0.163145,-0.38304 -0.08015,-0.17618 -0.169069,-0.34793 -0.263692,-0.51658 -0.106158,-0.17626 -0.187581,-0.36475 -0.288909,-0.54371 -0.08391,-0.14514 -0.167246,-0.29808 -0.302471,-0.40226 0,0 1.464844,-0.87949 1.464844,-0.87949 z"
       inkscape:connector-curvature="0" />
    <path
       style="fill:#000000;stroke:#000000;stroke-width:0.26458332"
       id="path4667"
       d="m 92.440023,243.13971 c 0.107352,0.0649 0.18646,0.15558 0.253897,0.25961 0.06524,0.10622 0.119766,0.21858 0.161385,0.33606 0.03953,0.0976 0.053,0.20224 0.07316,0.30474 0.01463,0.0899 0.04047,0.1775 0.05332,0.2677 0.01466,0.095 0.02833,0.19019 0.03969,0.28567 0.0057,0.0857 0.0098,0.17159 0.01209,0.25749 -0.0066,0.0902 0.0067,0.17993 0.01712,0.26941 0.01397,0.10103 0.0072,0.20295 0.0083,0.30451 0.0079,0.0912 -0.0042,0.18424 0.01323,0.27423 0.03039,0.11206 0.05768,0.22429 0.07182,0.33962 0.01384,0.0974 0.01876,0.19521 0.02074,0.29336 0.0044,0.0991 -0.0079,0.19691 -0.01836,0.29513 -0.01132,0.10511 -0.01677,0.2106 -0.02267,0.31611 -0.01725,0.13094 -0.03836,0.26204 -0.07645,0.38866 -0.0282,0.065 -0.04201,0.13491 -0.06488,0.20152 -0.01611,0.0469 -0.03635,0.0923 -0.05358,0.13875 -0.05691,0.17667 -0.134421,0.34607 -0.209851,0.51545 -0.0634,0.15578 -0.13493,0.30831 -0.195456,0.46523 -0.04849,0.17231 -0.08814,0.34754 -0.126066,0.5226 -0.01352,0.0851 -0.02911,0.16962 -0.05034,0.2531 0,0 -1.527969,0.7107 -1.527969,0.7107 v 0 c 0.04011,-0.0767 0.06509,-0.15699 0.07957,-0.24255 0.02853,-0.11674 0.07168,-0.23144 0.09543,-0.34914 0.0064,-0.0317 0.0077,-0.0642 0.01288,-0.0961 0.0051,-0.0311 0.01188,-0.062 0.01783,-0.0929 0.01929,-0.0729 0.02384,-0.0997 0.05181,-0.16892 0.04314,-0.10673 0.100505,-0.20779 0.139303,-0.31648 0.07676,-0.15999 0.153178,-0.32228 0.206614,-0.49152 0.01167,-0.0441 0.01767,-0.0896 0.03071,-0.13329 0.0046,-0.0154 0.01474,-0.0287 0.01976,-0.0439 0.01746,-0.053 0.01937,-0.11142 0.04804,-0.16096 0.0489,-0.11125 0.08296,-0.22726 0.09808,-0.34827 0.01085,-0.1049 -0.0019,-0.21057 0.01138,-0.31547 0.0094,-0.0922 0.02779,-0.18365 0.0227,-0.27656 0.0011,-0.0945 0.0031,-0.1892 -0.0013,-0.28366 -0.01037,-0.10916 -0.02723,-0.21707 -0.06957,-0.31914 -0.0096,-0.0379 -0.02339,-0.0749 -0.02916,-0.11352 -0.0096,-0.064 0.01027,-0.13131 0.0039,-0.1956 -2.07e-4,-0.0963 -0.0075,-0.19229 -0.0097,-0.28855 -0.0054,-0.0936 -0.02273,-0.18535 -0.03088,-0.27825 0.0016,-0.0832 0.0045,-0.16645 -1.4e-4,-0.24957 -0.0031,-0.0937 -0.01257,-0.18652 -0.03687,-0.2774 -0.0099,-0.0883 -0.0289,-0.1742 -0.04586,-0.26115 -0.01654,-0.0953 -0.02619,-0.19189 -0.05368,-0.28493 -0.03686,-0.10377 -0.07445,-0.20643 -0.134168,-0.30007 -0.05818,-0.077 -0.122883,-0.14062 -0.224342,-0.14935 0,0 1.418381,-0.96236 1.418381,-0.96236 z"
       inkscape:connector-curvature="0" />
    <path
       style="fill:#000000;stroke:#000000;stroke-width:0.26458332"
       id="path4673"
       d="m 134.48126,242.60192 c -0.16895,0.55257 -0.20252,1.1302 -0.21849,1.70403 0.001,0.1026 8e-4,0.20523 0.003,0.30782 0.005,0.26078 0.0169,0.27983 0.004,0.54016 -0.0129,0.25162 -0.0459,0.50277 -0.0781,0.75244 -0.0615,0.53663 -0.12086,1.07442 -0.1361,1.61457 0.005,0.55761 -0.0211,1.11491 -0.0226,1.67236 -0.0105,0.40489 -0.0542,0.80878 -0.0522,1.21411 0.001,0.24603 0.0179,0.39969 0.0375,0.64228 0.009,0.39557 0.0794,0.77957 0.18889,1.15808 0,0 -2.92723,1.56182 -2.92723,1.56182 v 0 c -0.0439,-0.41873 -0.0764,-0.83723 -0.0894,-1.25818 -0.008,-0.22202 -0.0101,-0.44426 -0.0193,-0.66625 -0.0164,-0.39517 -0.0498,-0.79041 -0.0375,-1.18641 0.0348,-0.56597 0.0748,-1.13237 0.0866,-1.69917 0.003,-0.53962 -0.0399,-1.08035 0.0519,-1.61605 0.0364,-0.24528 0.0897,-0.48958 0.11506,-0.73633 0.0298,-0.29065 0.0314,-0.5844 0.0556,-0.87548 0.0193,-0.53885 0.0279,-1.07791 -0.006,-1.61617 0,0 3.04531,-1.51363 3.04531,-1.51363 z"
       inkscape:connector-curvature="0" />
    <path
       style="fill:#000000;stroke:#000000;stroke-width:0.26458332"
       id="path4675"
       d="m 133.15303,243.09103 c -0.15313,0.28322 -0.21754,0.60479 -0.27125,0.91938 -0.0422,0.28487 -0.019,0.57234 -0.0162,0.85858 0.008,0.17194 0.01,0.34376 0.0105,0.5158 -0.008,0.24709 -0.02,0.49394 -0.0287,0.74104 -0.019,0.25754 -0.0494,0.51293 -0.11895,0.7618 -0.0492,0.25594 -0.0708,0.51556 -0.0607,0.77578 0.0222,0.2328 0.0607,0.46287 0.0515,0.6971 -0.0467,0.37714 -0.005,0.74565 0.0833,1.11252 0.0542,0.15919 0.028,0.081 0.0787,0.23465 0,0 -2.96855,1.59118 -2.96855,1.59118 v 0 c -0.0154,-0.16547 -0.004,-0.0762 -0.0377,-0.2673 -0.0486,-0.37951 -0.11007,-0.75653 -0.1456,-1.1374 -0.0238,-0.23116 -0.013,-0.46428 -0.0309,-0.69605 -0.0214,-0.28003 -0.0342,-0.55962 0.0106,-0.83866 0.004,-0.0431 0.004,-0.0867 0.0111,-0.12942 0.0183,-0.1126 0.0331,-0.10172 0.063,-0.21043 0.0355,-0.12874 0.0529,-0.26279 0.0794,-0.39343 0.0179,-0.23312 -0.008,-0.46428 -0.0141,-0.69752 -2.6e-4,-0.17729 -1.3e-4,-0.35442 0.01,-0.53158 0.01,-0.3085 0.053,-0.61481 0.0681,-0.92306 0.0113,-0.1833 0.0267,-0.36351 0.0614,-0.54417 0.0184,-0.096 0.0495,-0.18953 0.0644,-0.28615 0.006,-0.0376 0.005,-0.0759 0.008,-0.11378 0,0 3.09353,-1.43888 3.09353,-1.43888 z"
       inkscape:connector-curvature="0" />
    <path
       style="fill:#000000;stroke:#000000;stroke-width:0.26458332"
       id="path4677"
       d="m 130.3538,244.39099 c -0.63804,0.96043 -0.0541,0.0661 2.82614,-1.58301 0.0251,-0.0144 -0.0523,0.025 -0.0778,0.0387 -0.065,0.0348 -0.1194,0.0743 -0.17362,0.12373 -0.1138,0.12112 -0.11433,0.29816 -0.12629,0.45486 -0.002,0.18601 -2.6e-4,0.37215 0.004,0.55813 0.005,0.14862 0.008,0.29728 0.009,0.44596 10e-4,0.14742 -0.0207,0.29779 -0.0543,0.44134 -0.0335,0.17859 -0.1459,0.32376 -0.22029,0.48582 -0.064,0.15862 -0.1425,0.30839 -0.17512,0.47731 -0.0392,0.22214 -0.0146,0.44715 -2.6e-4,0.67042 0.0165,0.19549 0.0343,0.39083 0.044,0.5868 0.0115,0.15627 -2.6e-4,0.31241 -0.002,0.46867 -0.003,0.10197 -0.003,0.20376 -0.007,0.30571 0,0 -3.02585,1.51132 -3.02585,1.51132 v 0 c 0.0129,-0.0924 0.0171,-0.18354 0.009,-0.27689 -0.002,-0.15352 -0.013,-0.30687 -0.004,-0.46047 0.005,-0.19773 0.0121,-0.39561 0.005,-0.59339 -0.003,-0.0531 -0.0112,-0.20233 -0.0165,-0.25513 -0.0119,-0.11951 -0.0421,-0.24103 -0.0473,-0.36089 -10e-4,-0.0327 0.004,-0.0653 0.007,-0.098 0.0154,-0.19215 0.0273,-0.38159 0.13247,-0.55034 0.0542,-0.15849 0.10506,-0.31542 0.22312,-0.44006 0.0114,-0.0396 0.0306,-0.0768 0.0408,-0.11676 0.0206,-0.0807 0.0137,-0.1697 0.0522,-0.24654 0.001,-0.15083 0.004,-0.30165 0.007,-0.45247 0.003,-0.19118 5.3e-4,-0.38235 0.004,-0.57354 -0.005,-0.20107 -0.007,-0.40341 0.0295,-0.60204 0.0336,-0.0942 0.0989,-0.26082 0.19083,-0.31433 2.96192,-1.72439 1.8473,-1.63015 3.08685,-1.71963 0,0 -2.74023,2.07475 -2.74023,2.07475 z"
       inkscape:connector-curvature="0" />
    <path
       style="fill:#000000;stroke:#000000;stroke-width:0.26458332"
       id="path4679"
       d="m 129.02961,250.16641 c 0.0385,-0.16778 -0.002,-0.33723 -0.021,-0.50487 -0.0424,-0.24065 -0.0505,-0.48498 -0.0742,-0.72762 -0.0264,-0.21177 -0.0647,-0.42203 -0.0791,-0.63512 -0.0226,-0.15404 -0.074,-0.30194 -0.107,-0.4541 -0.0354,-0.17102 -0.037,-0.34622 -0.0229,-0.5196 0.007,-0.22259 0.10332,-0.42176 0.18791,-0.62297 0.0742,-0.15891 0.11533,-0.3376 0.20699,-0.48724 0.0875,-0.12763 0.10047,-0.28504 0.13534,-0.43203 0.0309,-0.19935 0.12296,-0.38077 0.18547,-0.57098 0.10025,-0.21677 0.167,-0.44495 0.23783,-0.67237 0.0763,-0.17534 0.12634,-0.36692 0.21807,-0.53496 0.0731,-0.12113 0.13133,-0.24892 0.23664,-0.34637 0.0484,-0.10189 0.14557,-0.15547 0.22507,-0.22916 0,0 3.1512,-1.27409 3.1512,-1.27409 v 0 c -0.0792,0.0599 -0.13558,0.14317 -0.23732,0.16864 -0.0135,0.0208 -0.0245,0.0434 -0.0405,0.0623 -0.0394,0.0465 -0.10418,0.0729 -0.14092,0.12121 -0.0151,0.0198 -0.021,0.0453 -0.0346,0.0662 -0.0127,0.0193 -0.0293,0.0357 -0.0439,0.0536 -0.0571,0.0842 -0.0251,0.0446 -0.0963,0.11859 -0.0811,0.11402 -0.10243,0.2648 -0.19033,0.37593 -0.0979,0.22161 -0.1249,0.46263 -0.22991,0.68075 -0.0165,0.0319 -0.0374,0.062 -0.0495,0.0959 -0.013,0.0363 -0.0156,0.0755 -0.0252,0.11285 -0.0254,0.0991 -0.0637,0.19541 -0.10029,0.29063 -0.0327,0.16943 -0.0824,0.33387 -0.10123,0.50633 -0.0751,0.19593 0.0206,-0.0284 -0.0766,0.13299 -0.0656,0.10909 -0.10122,0.23623 -0.1662,0.34605 -0.0393,0.10038 -0.0798,0.20079 -0.12451,0.29891 -0.0229,0.0504 -0.0582,0.0956 -0.0744,0.14854 -0.008,0.0274 -0.008,0.0568 -0.0124,0.0852 -0.0223,0.14465 -0.0294,0.28053 -0.01,0.42671 0.0201,0.16236 0.0748,0.31487 0.10093,0.47582 0.0369,0.21671 0.005,0.43978 0.0406,0.65775 0.032,0.23073 0.0588,0.46227 0.10296,0.691 0.0404,0.17641 0.043,0.35956 0.0919,0.53492 0,0 -3.0631,1.56073 -3.0631,1.56073 z"
       inkscape:connector-curvature="0" />
  </g>
</svg>
